<?xml version="1.0" encoding="utf-8"?>
<!-- Generator: Adobe Illustrator 24.1.0, SVG Export Plug-In . SVG Version: 6.00 Build 0)  -->
<svg version="1.1" id="Layer_1" xmlns="http://www.w3.org/2000/svg" xmlns:xlink="http://www.w3.org/1999/xlink" x="0px" y="0px"
	 viewBox="0 0 512 512" style="enable-background:new 0 0 512 512;" xml:space="preserve">
<style type="text/css">
	.st0{fill:#FFFFFF;}
</style>
<g>
	<g>
		<path class="st0" d="M469.3,64H42.7C19.1,64,0,83.1,0,106.7v256c0,23.5,19.1,42.7,42.7,42.7H224v21.3h-64
			c-5.9,0-10.7,4.8-10.7,10.7S154.1,448,160,448h192c5.9,0,10.7-4.8,10.7-10.7s-4.8-10.7-10.7-10.7h-64v-21.3h181.3
			c23.5,0,42.7-19.1,42.7-42.7v-256C512,83.1,492.9,64,469.3,64z M266.7,426.7h-21.3v-21.3h21.3V426.7z M490.7,362.7
			c0,11.8-9.6,21.3-21.3,21.3H42.7c-11.8,0-21.3-9.6-21.3-21.3v-256c0-11.8,9.6-21.3,21.3-21.3h426.7c11.8,0,21.3,9.6,21.3,21.3
			V362.7z"/>
	</g>
</g>
</svg>
