<svg xmlns="http://www.w3.org/2000/svg" viewBox="0 0 299.7 131.8"><path d="M67.2 31.7c-1.9 8.5.9 15.6 4.2 22.6C74.1 60 77 65.7 79 71.6c2.6 7.8 1.7 15.1-5.5 20.6-1.4 1.1-2.9 2.7-3.3 4.3-2.3 10.8-4.2 21.8 3.2 31.6 1.3 1.8 4.1 3 6.4 3.4 3.1.6 6.3 0 9.5.2 4.2.2 4.7-2.1 3.1-4.9-1.3-2.2-3.2-4.7-5.4-5.5-5.7-2.1-4.4-6.7-4.6-10.8-.2-4.2 1-7.9 5.2-9.9.6-.3 1.2-.6 1.8-.8C104 96 112 85.3 117.6 72.3c1.5-3.6 3.5-5.2 7.1-4 4 1.4 8.5 2.4 11.8 4.8 10.5 7.5 22.1 10.6 34.7 10.7s25.3.5 37.8-.3c4.5-.3 6.7.2 9.7 3.8 5.4 6.7 11.2 14 18.4 17.9 5.8 3.1 10 7.8 15.7 10.7 6.2 3.2 12 7.2 18.1 10.4 2.6 1.5 5.5 2.3 8.5 2.5 6.4.1 12.9-.5 19.3-.8l1-1.3c-2.4-2.7-4.6-5.6-7.3-7.8-1.7-1.3-3.8-2.1-6-2.3-21-1.5-43.3-33-44-53.6-.1-3.2 2.2-6.7 3.9-9.7.3-.5 4.2.1 5.4 1.2 3 3 5.3 6.8 8.2 10.1 2.2 2.4 4.6 5.1 7.5 6.3 1.9.8 5-.4 7.2-1.5.9-.5.6-3.2.8-5 4.3 2.5 8.2.7 10.9-3.7.9-1.5.7-3.7.8-5.5.2-2.9-.5-6.1.4-8.7 2.4-7 1.9-13.8.3-20.7-.4-1.6-.8-3.8-2-4.5-4.6-2.9-3.9-6.6-2.7-10.8.9-3.1 1.6-6.8-2-8.4s-7.2.7-8.5 3.9c-2.5 5.7-6.2 4.8-10.8 3.8-6.8-1.6-13.7-2.7-20.5-4-1-.1-2-.3-2.8-.9-5.8-5.2-12-3.5-17.9-.9s-11.4 5.5-16.9 8.6c-8.4 4.7-18.4 5.7-27.5 2.6-9-2.8-17.9-6.4-27-8.7-12.7-3.1-25.3-2.1-37.9 2.1-5.8 1.9-12.5 1.1-18.7 2.1-23 3.5-45.4 9.5-65.6 21.3-8 4.7-15.1 11.4-21.4 18.3-5.8 6.3-7.1 14.5-4 22.9C5 82.2 12 86.1 21.4 83.9c3.5-.8 6.8-2.8 10.3-3.6 5.4-1.3 11-2.8 16.4-2.7 3 0 7.9 2.7 8.6 5.1.9 3.2-1.1 7.4-2.7 10.8-.9 1.9-3.6 2.9-5.1 4.6-.8.8-1.6 2.5-1.2 3.3.3.8 2 1.4 3.2 1.9.7.2 1.3.1 1.9-.2 7.1-2.9 11.9-8 13.5-15.5 1.6-7.1-1.5-12.7-7.4-16.7-5.7-4-13.1-4.9-19.6-2.3-5 1.8-9.7 4.5-14.8 5.9-3.1.8-7.3 1-9.8-.5-3.8-2.3-4.3-7.2-2.9-11.3 1.1-3.5 2.9-6.7 5.4-9.4 13.1-12.8 28.6-20.9 47.3-21.9 1 .1 1.9.2 2.7.3z"/><path d="M172.1 87.8c1.2 4.5 2.5 7.7 3 11.1.7 4.7 1.5 9.6.9 14.2-1.3 9.5 5.7 18.3 15.4 18.4h6.4l1.1-1.3c-1.8-2.7-3.1-6.1-5.5-7.8-6.9-4.9-7.2-10.9-4.6-18 1.9-5.3 3.6-10.6 5.6-16.6h-22.3zM122.2 71.1c-6.2 18.1-19.8 27.6-36.1 34 21.4-1.4 41.4-5.2 53.6-25.4l-17.5-8.6zM63.8 112.8l-9.2 16.6 1.1 1.6c3.4.2 6.8.1 10.1-.1 2.9-.3 4.3-2.3 3.1-5.3-1.4-3.6-2.9-7.3-5.1-12.8zM255.7 6.1l8.1 1.8c1.1-3.4 1.4-6.7-2.1-7.7-4-1.1-4.5 2.6-6 5.9z"/></svg>