<svg xmlns="http://www.w3.org/2000/svg" viewBox="0 0 158.6 160.2"><path d="M118.8 58.4c-2 3.7-5.4 5.9-9.9 7C102.4 67 96.1 69 89.8 71c-1.9.7-3.6 2.3-5.9 3.8l12.9 11.3c-.2.2-.3.4-.5.6C89.6 82.9 83 79 76.2 75.4c-11.5-6.2-23.9-7.8-36.2-3.7-5.5 1.8-10.9 5.8-15 10.1-11.3 11.9-17.6 37.8-6.4 55.3 2.9 4.5 5.2 9.4 8.3 13.6 5.3 7.1 12.4 9.5 21.4 8.9 11-.7 22.2.1 33.3.3 1.5.2 3 .3 4.5.3 1.2-.1 3-.6 3.2-1.4.3-.9-.2-3-1.1-3.5-3.9-2.1-8-3.9-11.9-5.8 1.5-1.8 4.2-4.3 6.1-7.2 5.6-8.7 5.8-21.1.7-27.9-5.5-7.3-19-11.3-29.2-7.5-6 2.3-11.2 6.5-16 9.3 1.6-10.2 17.8-16.5 34.7-12.1s22.3 17.9 15.3 38.4c7.7 6.6 12.1 18.1 25.3 16.6 4.8-.6 9.9 1.4 14.5-1.9-1.7-4.3-4.7-6-8.9-6.1-7.8-.1-11.5-3.6-12.4-11.5-.9-7.8 2-14.2 7.8-19 4.9-4 10.2-7.4 15.4-11 6.1-4.2 11.7-8.9 13.7-16.8 1.3.4 2.3.8 3.4 1 5.5 1.5 9-.4 10.8-5.9 3.5-11-2.8-25.4-13.5-30.3-2.7-1.2-5.6-2.6-8.5-2.8-5-.2-6.9-3.1-6.8-7.3.4-18.5-9.3-32.1-20.9-44.9-.7-.8-1.1-2-2.3-2.6-3.3 7.3-3.2 14.1.5 22.3L83.1 3.5l-1.5 1.2C83.4 16 87.4 27.1 93.9 36s16.3 15 24.9 22.4zm7-4c-2.3-13-7.4-24.3-19.1-31.5 11.7 4.2 21.5 19.8 19.1 31.5zM14.2 136c-6-10.7-6.9-15.9-5-26.9-6.3 4-10.6 13.3-8.8 19.1 1.8 6.2 5.2 8.2 13.8 7.8z"/><path d="M125.7 54.4c2.4-11.7-7.3-27.3-19.1-31.5 11.8 7.2 16.8 18.5 19.1 31.5z" fill="#fff"/></svg>