<svg xmlns="http://www.w3.org/2000/svg" viewBox="0 0 232.3 208.3"><path d="M104.5 67.4c.5-7.9-1-11.2-5.8-13-6.2-2.3-10.8-.2-16.1 7.2-1.4-7.3 2.1-10.2 13.9-11.4 2.3-12.7 8-16.9 21.1-15.8 9.1.5 17.5 5.2 22.8 12.7 1.9 2.6 3.3 4.2 7.2 2.8 4.5-1.6 9.1-.4 13 3-9.3.4-18.4 1.4-27.4 1.1-5.2-.2-10.4-2.5-15.7-4 2.6 4.2 6.5 7.6 11 9.6 5 2.1 10.8 5.4 15.4 4.4 7.1-1.5 14.2.5 21.2-1.8 9.4-3 16.1.7 20.4 10.1.4-1.7.7-3 1.2-4.9l2.5 3.9h1.1l-1.7-10.4 4.9.4c1.5-3.8-.1-6.5-3.7-7.2-4.2-.8-8.5-.6-12.8-.6-2.9 0-5.9.4-8.8.6-.2-.6-.3-1.2-.5-1.8 2.6-.8 5.1-2.2 7.7-2.3 6.3-.4 12.6-.1 18.9-.4 1.7-.1 4.7-.8 4.9-1.8.4-2.4.2-4.8-.8-7-.2-.5-3.5.1-5.3.3-1.4.2-2.7 1.1-4.1 1.1-5.4 0-10.8-.3-16.1-.6-2.5-.1-5-.6-7.5-.9v-1.6h17l.3-1.8c-3.4-4-8.5-5.3-13.6-6.3-3.2-.6-6.6-.6-9.9-1-6.5-.8-8.6-5.2-5.1-10.8 2.3-3.7.8-7.6-3.6-8.2-3.1-.4-6.3-.4-9.4.1-7.7 1-14.5-.2-20.2-5.9l-.9 1.4c2.7 1.8 5.1 4.4 8 5.1 4.8 1.1 9.8.8 14.8 1.3 2.3.2 5.2.5 6.7 1.9.8.7-.4 4.2-1.4 6.1-3 6.2-2.4 8.2 4.3 13-4.8 1.6-9.7.2-15.9-3.6-4.8-2.9-9.7-5.8-15-7.6-15-5-28.1-.4-38.6 10.6-10.3 10.8-10.7 23.9-5.5 37.3C83.5 86.4 94.6 97.2 110 104c13.9 6 28.7 8.1 43.5 10.8 10.6 1.9 21.2 4.1 31.6 6.9 4.5 1.2 8.8 4 12.6 6.9 17 13.2 9.4 35.6-4.1 43.8-20.3 12.4-46.8 10.1-63.9-7-6.2-6.2-11.1-13.6-16.7-20.4-6-7.3-11.5-15.3-18.4-21.6-15.9-14.5-39.1-13.2-58.4-2.7-17.4 9.4-26.9 29.6-23.7 48.4 4.8 28 35.8 46.6 60.6 36.4 9.7-4 20.3-14.1 27.5-26.3L90 166c-3.9 5-7.4 10.3-11.6 14.9-9.4 10.1-21 11.5-31.4 4.3-9.6-6.5-14.9-17.4-12.5-26.9 3.1-12 12.1-17.9 23.5-20.6 10-2.4 18.5.4 24.8 8.7 7.5 10 14.3 20.5 22.3 30.1 14 17.4 32.2 28.5 55.3 29.6 19.4.9 37.4-3.9 52.7-16.2 31-24.8 23.1-73.6-14.2-89-13.6-5.6-28-6.8-42.3-9-12.6-1.9-25.2-4.2-37.6-7.2-5.3-1.3-10-4.9-15.4-7.6 8.5-6.8 17.6-4.8 19.1 4l4.1-4.7 2.8 4.7c.5-1.1 1-2.2 1.8-4l3.7 4.3c2.4-5 .1-10.6-6.3-12.1-6.4-1.5-13.1-1.5-19.7-2.1-1.7-.1-3.1 0-4.6.2z"/><path d="M17.1 192.3c-10.6-14.2-12.7-29.9-7.8-46.1 9.9-32.8 49.9-48.4 77.9-31.2 8.4 5.1 15.8 11.9 23.8 18-5.6-14-15.8-25.7-28.9-33.2-2.9 3.8-5.4 2-8-.4-9.5-8.8-19-11.3-31.1-8.3.1.3 0 .7.2.9 1.6 1.5 3.3 2.9 4.9 4.3-2 1.6-3.7 3.8-5.9 4.5-4.6 1.4-9.6 1.5-14.1 3.1-6 2-11.6 5-17.4 7.5.2.4.4.9.6 1.3l8.7.8c-30 20.4-22.2 69.4-2.9 78.8zM59.4 26.7l9.6-3.2 1.2 1.1c-12.9 7.8-18.1 18.6-13.6 33.6l4.7-8.1c-1.4 11.2 1.9 20.8 8.4 29.8.4-1.2.6-2.1 1.1-3.8 6 12.7 14.4 22.3 27.7 26.9-.5-.4-.9-.9-1.4-1.3s-1.3-1-2-1.5C83.5 91.6 75 79.5 70.7 65.8 63.1 42.2 74.2 23 98.5 17.6c8.6-2.1 17.7-1.3 25.8 2.4l.9-1.4c-5-4.1-9.8-8.5-15-12.3-1.7-1.2-5-2-6.6-1.2-4.6 2.3-8.2.1-12.2-1.2C82.8 1.2 75 2.9 69 9.5c-4.3 4.8-7.5 10.7-11.2 16.1l1.6 1.1zM174.8 171.6l-7.3-4.1.6-1.7c7.7 1.6 15.7.4 22.6-3.4 10.3-5.4 11.2-17.6 2-25 .4 10.2-3.8 15.8-12 15.6-1.1 0-2.7.1-3.3-.6-1.3-1.6-2.5-3.4-3.6-5.2 2-.9 3.8-2.2 5.9-2.7 1.2-.2 2.7.9 4 1.5-.6-6.6-2.8-8-19.3-12.1 2.9-4.6 7.5-4 11.9-4.4-6.9-8.6-21.7-8.7-28.1-.3-2.4 3.1-3.4 5.7 1.2 8.2 3.2 1.8 5.9 4.9 8.3 7.8 3.6 4.3 6.7 9.1 9.2 14.1l-25.1-13.7c.3 14.5 6.2 24.4 14.9 24l-1.3-5.9c5.4 5.7 10.4 11.9 19.4 7.9z"/><path d="M117 141.9c1.9 2.6 3.7 5.3 5.8 8.2 10.2-7.8 20.8-9.6 32.3-2.1-7.4-13.1-25.2-15.9-38.1-6.1zM145.5 1c2.1 2.7 4.1 5.6 6.5 8.1 1.3 1.4 3.2 2.3 4.9 3.4 6.1 4 6.4 4.6 4.4 11.8-.3 1-.5 1.9-.8 3.2l15.4 2.1c-3.1-2.1-5.4-3.7-7.6-5.2.8-10.8-.4-12.7-11.3-16.2-4.4-1.4-8.6-3-9.9-8.2l-1.6 1z"/></svg>