<svg xmlns="http://www.w3.org/2000/svg" viewBox="0 0 204.01 239.17"><g data-name="Layer 2"><g data-name="Layer 1"><g data-name="07_horse"><path d="M140.16 208.31c-3.94-5.11-4.86-16.08-1.72-18.55 1.84-1.44 5.41-1.58 7.94-1 3.63.77 5.91-.7 8.56-2.62 8.72-6.31 13.36-14.42 12.53-25.44-.33-4.27-.05-8.59-.05-14-6.49.71-12.44.91-18.19 2.12-6.23 1.18-11.23.38-13.73-4.26-4.58 1-8.59 2.79-12.54 2.67-10.1-.31-20.18-1.47-30.61-2.32-.5-7.7 1.11-15.7-3.78-22.64 2.66 12.37 1.43 24.08-5.57 34.82s-16.17 18-30.18 21.38c4.18 5.65 7.27 11.2 11.65 15.41 6 5.74 13 10.39 19.4 15.64 4.89 4 9.84 7.95 14.31 12.39s7 10.07 7.64 17.26c-6.93-1.78-13.67-3.2-20.14-5.39-1.63-.56-3.3-3.52-3.46-5.49-.81-10.29-6.38-17.29-14.5-22.69-8.45-5.6-17-11.09-25.52-16.6-8-5.17-8.38-6.36-4.47-14.8 6.33-13.67 9.3-27.32 4.17-42.48-2.29-6.76-2-14.85-1.18-22.13a29.56 29.56 0 0129-25.92c8-.17 16 2 24 3.45 5.05.92 9.92 2.9 15 3.55 3 .38 6.14-.93 9.23-1.48-.08-.47-.16-.94-.23-1.41h-11.95l7.9-17.94-4.67 2.25 7.69-21.62-4.38 2.24c.54-4.88 1.06-9.61 1.58-14.33l-.92.28c-.62-1.15-1.84-2.33-1.79-3.45.45-10.14 5.55-17.52 14.09-22.68a41.51 41.51 0 014-1.86l-3.62-2.55c1.89-3.66 19.27-5.94 26.45-3.34-.59-1.72-1.1-3.16-1.66-4.78 7.14 0 12 3 14.77 10.09l3.6-4.15 5 9.69 2.94-1.22a73.08 73.08 0 012.37 8.52c1.54 10.17 1.33 20.68 6.51 30.12 1.41 2.56 1.95 5.6 2.87 8.37-7.81 4.13-10.63 3.48-15.6-2.76-1.84-2.3-3.9-4.87-6.44-6.1-7.85-3.79-12.83-9-10.94-18.72-4.21 3.75-4.53 7.65-.71 12.12 2 2.34 2.14 4.12 1.21 7-2.41 7.46 1.5 13.42 5.32 19.42s8 12 10.53 18.52c4.84 12.61 1.14 24.53-5.11 35.84-.88 1.59-1.79 3.16-2.67 4.75-.06.12 0 .33.08.67 3.37.47 6.83.77 10.2 1.48 4.09.85 6.33 3.14 5.69 7.8-1.5 10.88-2.75 21.79-4.1 32.69-.48 3.85-2.39 6.07-5.91 8.32-7.75 5-14.89 11-22 16.9-2.93 2.4-5.05 5.65-7.89 8.96z"/><path d="M17 149.54c0-4 .67-7.31-.13-10.17C15 133 12.4 126.83 10.3 120.52c-2.24-6.77-4.45-13.6-.28-20.65l-1.56-.69-7.53 11.2C-2.59 100.82 4.24 85.66 15.42 79c14-8.3 34.53-7.08 43.69 3.07-20 5.09-25.17 19.23-22.64 37.93-6.55.15-5.7 3.83-5.26 8.27.51 5.15.65 10.71-.8 15.59-1.95 6.6-8.03 8.24-13.41 5.68zM111.43 150.16c-1.61 7-4.81 11.21-9.39 14.08-5.89 3.69-12.12 6.89-18.27 10.16-4.65 2.47-5.21 4.14-1.14 7.55 4.94 4.15 10.56 7.48 15.63 11.5 7.12 5.63 14.25 11.29 20.88 17.47 4 3.78 4.69 9.29 4.74 14.72-4.85-.61-9.4-1.22-14-1.74-3.34-.39-5.64-1.46-5.32-5.53a25.24 25.24 0 00-.73-6.43c-1.36-7.49-4.83-13.13-12.54-15.94-8.12-2.94-16-6.52-24-9.9-2.55-1.09-5-2.46-8.3-4.12 15.69-5.47 25.77-15.65 32.31-29.61.43-.91 1.5-2.11 2.3-2.14 5.79-.15 11.54-.07 17.83-.07zM169.57 128.67L175 115c8.1.29 16.1 1.26 23.44 5.11 5.68 3 6.47 5.71 4.66 11.84-2.72 9.23-5.56 18.45-7.63 27.83-1.25 5.67-3.72 8.87-9.65 9.15a38.51 38.51 0 00-5.68 1.14c.44-4.66-.74-9.5 5.14-11.7 1.17-.43 2.2-2.51 2.44-4 1.19-7.2 2.08-14.45 3.12-21.68.5-3.51-2.12-3.89-4.37-4-5.25-.17-10.56-.02-16.9-.02zM153.25 183.61c1.86-5.34 3.23-9.92 5.17-14.25.35-.77 3.07-.49 4.69-.69 0 2.28.85 5.27-.27 6.71-2.26 2.89-5.59 4.93-9.59 8.23z"/></g></g></g></svg>