<svg xmlns="http://www.w3.org/2000/svg" viewBox="0 0 158.99 165.6"><g data-name="Layer 2"><g data-name="Layer 1"><g data-name="10_rooster"><path d="M84.89 142.94a22.05 22.05 0 01-9.2-14.52c-.4-2-2.44-3.66-4.66-6.75-3.16 14.76-11.6 22.84-25.49 26.86 6.36-9.17 11.1-17.88 10.28-28.54-3.44 8.84-6.1 18.07-15.27 25.06 4.35-13.12 9.16-25 4.27-37.89-2.79 9-6.46 17.27-14.54 23.77V90.07c-6.89 3.69-14.53 2.28-22.84-1.67 9.14-2.92 14.3-9.34 18-15.5L0 58.14l.54-1.73c9.3-1.63 19.5.55 28.3-5.85C15.31 48.31 8.29 39.17 2 28.84l32.5 3.23.5-1.32C25 22.94 15.6 14.75 13.61 0c10.93 10 23.67 13.47 36.2 17.31C60 20.44 70.08 23.86 78.47 30.87c10.58 8.83 16.87 19.92 15.92 33.87-.37 5.39-3 10.73-5.21 15.83-.53 1.22-3.56 2-5.41 1.92a93.32 93.32 0 01-37.06-9.08c-1-.47-2.06-.79-3.29-1.26C52.36 107.09 87 135 125.51 121.09c18.9-6.82 26.73-25.76 18.39-42.31a4.49 4.49 0 00-2.21-2.15c.42 1.86.86 3.71 1.26 5.57 2.54 11.68-.62 21.46-10.08 28.88-14 11-29.73 11.8-45.9 6.45-18.29-6-29.87-19-35.93-36.62 9 2.29 17.78 5.26 26.82 6.63 10.32 1.57 20.61.35 29.94-5.13 7.25-4.25 10.08-9.41 7.88-17.5-1.63-6-4.61-11.68-7.43-17.29S102 36.53 104.63 29.7l-1.31-.46-4.09 9c-6.23-7-5.58-12.76 3.22-19.64l-8.25-2c2.76-5.82 5.72-7 14-6V4.4c2.41.21 4.91.1 7.2.73 2 .55 3.8 1.92 6.13 3.17.25-1.65.47-3.15.7-4.66 6.07.9 7.43 3 8.93 14.19l4.76-5.93c2.52 5.73 1.55 9-3.36 13.5 1.57 8.49 10.2 8.7 16.05 13.76L134 41.33c2.34 2 3.95 3.1 5.09 4.54s3.23 3.86 2.82 5.18c-1 3.21-3.11 6.29-7.35 3.16a8.84 8.84 0 00-1.68-.77l-.76 1.1A67.41 67.41 0 00138.4 59c20.3 11 26.16 30.65 15 50.75-4.29 7.74-10.39 13.34-19.06 15.84a76.14 76.14 0 01-8.14 2.35c-7.47 1.27-14.26 3.56-20 9-2.49 2.36-6.39 3.46-9.83 4.55-4.77 1.51-6.24 3.73-3 7.58 3.68 4.3 8.47 7.69 13 11.15 2.55 1.93 5.61 3.18 8.21 5.25-10.32-1.86-20.4-4.69-31-1.28-1.35-5.2 3.42-6 8.06-8.39l-9.06-6.4c.62-1.56 1.42-3.8 2.31-6.46z"/><path d="M107.55 140.87c8-7.75 11.75-9.39 24.78-10.4-1.88 4.35-3.66 8.12-5.1 12-.6 1.62-1.15 3.85-.5 5.23 3 6.46 7.9 10.86 15.14 12.56 3.47.81 6.72 2.53 10.07 3.84l-.57 1.48-29.48-2.1c.81-.57 2-1.38 3.16-2.25s3.15-1.93 3-2.67a6.6 6.6 0 00-2.59-3.85c-2.09-1.59-4.67-2.14-4.35-6 .12-1.42-3.56-3.42-5.78-4.67s-4.84-2.04-7.78-3.17z"/></g></g></g></svg>