<svg xmlns="http://www.w3.org/2000/svg" viewBox="0 0 212.59 171.98"><g data-name="Layer 2"><g data-name="Layer 1"><g data-name="11_dog"><path d="M146.85 22.3c-7.4.06-10.72-6.12-14.18-11.83 10.88-1.69 21.44-3.38 32-4.93 7.77-1.14 15.07.69 22.48 3.11 6.85 2.23 14.14 3.09 21.16 4.83a5.86 5.86 0 013.69 3 9.61 9.61 0 01-5.28 11.92c-2.83 1.31-5.83 2.23-9.71 3.69l10.67 1.64c-1.36 3.89-4 4.1-7.18 4.06-6.91-.08-13.83.26-20.74.2-4.32 0-8.65-.51-13-.79 1.37 4.1 5.13 5.18 10.47 5.14-7.15 6.71-5.62 14.46-5.53 22.48.07 6.87-2.86 13.8-4.82 20.61-.28 1-2.53 1.7-4 1.93-6.66 1.1-13.35 2-20.11 3.89 3 .69 6.06 1.3 9.05 2.09 8.81 2.33 17.6 4.77 26.41 7.08 3.05.8 4.6 2.55 4.12 5.74-1.23 8.2-2.42 16.4-3.82 24.57-.68 4-3 6.12-7.32 6.84-5.2.86-10.21 2.81-15.32 4.3-1.79-4.77-.52-10.33 4.78-12.77 7.45-3.43 5.9-9.15 5.89-16.2-11.07 1.8-21.83 2.72-32.13 5.42-14.5 3.81-28.43 3.22-41.91-2.87-8.62-3.9-16.7-9-26.4-8.74-.55-9.39-1.06-18.19-1.57-27h-1.3c-.22 3.23-.46 6.46-.64 9.7-.8 14.19-5.47 26.06-18.3 34-6.74 4.18-12.85 9.48-18.86 14.72a33.24 33.24 0 00-11.34 18.93c-.63 3.3-1.52 6.44 2.44 8.57 1 .55 1.3 2.45 2.11 4.1-5.15 2.48-10.07 3.27-14.66.59-4.43-2.54-4.41-7.32-3.55-11.61 1.24-6.18 4-12.19 4.36-18.39.72-10.78 6.47-17.47 14.65-23.49 2.57-1.89 4.07-6.4 4.45-9.88 1-9.22 1.15-18.53 1.66-28.39C12.24 68.46 5.3 47.65 10.91 30.34c3.62-11.17 12.23-17.41 23.54-20.11 9.91-2.36 17.76 1.23 23.9 8.66 2.36 2.85 3.5 6.7 5.2 10.1l-1.27.7c-1.47-1.28-2.9-2.61-4.43-3.82-7.82-6.25-15.77-7.34-22-3.06-7.39 5.06-11.47 15.84-8.37 24.29a38.64 38.64 0 007.05 11.22c2.95 3.49 6.15 4.54 11.57 2.53 5.86-2.18 13.17-2 19.53-1 12.78 2.13 25.36 3 38.17.53 6-1.17 12.21-1.39 18.28-2.36a7.38 7.38 0 004.69-2.64c6.81-10.9 13.4-22.01 20.08-33.08z"/><path d="M48.52 126.45c4.91-4.81 9-10.21 14.35-13.54 3.4-2.11 8.71-1.13 14-1.62-.75 5.24-1.68 9.13-1.78 13-.24 8.93-.32 17.88 0 26.8a9.15 9.15 0 007.32 9 8.58 8.58 0 013.8 2.23c2.22 2.3 1.42 4.92-1.6 5.94C74 171.93 66 167.12 63.72 155.75c-1-5-1.74-10.17-3.19-15.09-2.07-7.06-4.98-10.24-12.01-14.21zM139.75 120.94c-.22 4-.22 8.7-.77 13.29-1.4 11.85-.47 22.73 10.87 29.92.47.3.65 1.07 1 1.64-7.09 3.12-16.1.38-19.2-6.31a41 41 0 01-3.37-12.41c-.9-8.23-2.33-16.11-8.62-22zM155.29 3.21c-8.78 3.85-9.18 3.73-10.85-3.21z"/></g></g></g></svg>