<svg xmlns="http://www.w3.org/2000/svg" viewBox="0 0 259 136"><path d="M229 55l-6 11c7-10 19-11 32-3-13 1-22 9-31 18 6-1 11-12 17-1l-8 2v1c7-2 12 1 16 6 1 2 5 3 7 5l-2 6h1l3-4 1 1-3 5c-7 5-13 1-20-2l4 4 4 3c-7 4-14 5-21 3h-15c-4 1-8 0-12-3l-10-5c3-9 5-19-2-27l1 4c1 7 1 14-3 20-4 8-1 21 6 27l5 5c-6 3-10 1-15-2-7-5-6-11-8-17-2-7-4-13-9-18-4-5-4-11-4-17l1-25-1-2-5 30c0 6 3 12 5 18l-11 2-12 4c-9-5-15-5-19 1-9-6-12-6-18 0-4-2-8-5-11-5l-12 3-23-14c19-18 31-38 18-65l1 13c2 18-5 32-17 45L36 96l-1 1c-2 2-3 19-2 22l9 16-1 1-3-2c-1 1-2 3-3 2-2 0-5-1-7-3l-2-5c-4-7-4-7-2-15 1-6 1-12-1-18-1-1 0-4 1-5 4-5 4-10 2-16l-7-13c-7-13-7-25-2-38 1-3 2-7 1-8-2-2-6-3-9-3-3 1-6 4-6 9l2-2 8-1c0 1 2 5 1 6l-7 4-5 1c-1-6-6-14 3-19 7-5 13-1 20 3 4-5 9-7 15-7l2-1c14-7 28-5 43-3 20 4 40 6 60 7 26 1 50 9 70 26 6 5 10 13 15 19l-1 1z"/><path d="M40 99l10-8 5 5 1 5c-3 5-1 11 3 16l13 13v2l-7-1-4-1-4-3-8-16-9-12zm115 4c-6 13 1 21 11 29h-6c-4-1-8-1-10-3-2-3-2-7-3-11l-3-8c-2-4-1-6 3-6l8-1zm88-25l-5-7 17-3v1l-12 9z"/></svg>