<svg xmlns="http://www.w3.org/2000/svg" data-name="Layer 1" viewBox="0 0 450 450"><path d="M450 118c-3.95 3.77-7.74 7.73-11.94 11.19-1.42 1.17-4.64 2.12-5.73 1.34-2.82-2-.86-4.35 1.05-6.15 4-3.75 8-7.47 12.92-12-4.76-4.33-8.82-8-12.83-11.7-1.9-1.76-4-4-1.2-6.11 1-.79 4.31.19 5.75 1.37 4.21 3.43 8 7.37 12 11.11zM0 107q5.6-5.27 11.18-10.53c1.9-1.8 3.87-4.63 6.63-2 3.09 2.94 0 5.06-1.94 6.94-3.7 3.56-7.53 7-11.68 10.79 4.64 4.53 8.58 8.32 12.46 12.18 1.8 1.8 4 4.09 1.1 6.15-1.09.78-4.33-.21-5.78-1.39C7.76 125.68 4 121.74 0 118zm107 343c-3.75-4-7.7-7.76-11.14-12-1.17-1.43-2.1-4.67-1.31-5.76 2.12-2.92 4.34-.61 6.1 1.18 3.82 3.91 7.56 7.9 12.06 12.61 3.24-3.61 5.73-7 8.86-9.69 2.5-2.14 4.66-8.26 8.85-4 3.76 3.83-2 6-4 8.56-2.57 3.22-5.6 6.07-8.43 9.08zM118 0c3.74 4 7.42 8 11.25 11.88 1.95 2 3.65 4.23.93 6.17-1.07.76-4.36-.25-5.72-1.48-4.07-3.65-7.69-7.81-11.87-12.17-4 4.13-7.49 7.89-11.15 11.48-1.91 1.88-4 5-7 1.93-2.64-2.78.2-4.71 2-6.61C100 7.49 103.49 3.74 107 0zm225 0 10.19 10.82c1.86 2 5.17 4 2.4 7-3.21 3.46-5.28-.34-7.23-2.26-3.53-3.48-6.82-7.23-10.74-11.42-3.85 4.1-7 7.72-10.46 11-2.05 2-4.21 6.27-7.56 2.69-3.14-3.36 1-5.51 2.94-7.7 3.07-3.46 6.3-6.76 9.46-10.13zm107 343c-3.95 3.77-7.73 7.74-11.93 11.21-1.42 1.18-4.64 2.16-5.73 1.38-2.86-2-.86-4.39 1-6.17 4-3.8 8-7.49 12.9-12.06-4.58-4.17-8.54-7.69-12.4-11.31-1.92-1.81-4.54-3.91-1.64-6.59s4.78.26 6.66 2c3.75 3.47 7.43 7 11.14 10.54zM332 450c-3.74-4-7.69-7.76-11.12-12-1.16-1.43-2.07-4.69-1.27-5.77 2.11-2.84 4.33-.69 6.1 1.2 3.73 4 7.43 8 11.73 12.63 4-4.28 7.1-8 10.56-11.29 2-1.95 4.22-6.16 7.62-2.51 3 3.23-.82 5.21-2.73 7.27-3.26 3.51-6.59 7-9.89 10.44zM0 332c3.59-3.39 7.17-6.81 10.79-10.17 2-1.83 3.92-5.05 7-2.27 3.32 3-.13 5-1.94 6.86-3.61 3.62-7.48 7-12.06 11.21 4.92 4.53 9.24 8.18 13.1 12.27 1.11 1.18.9 3.62 1.29 5.49-2-.26-4.57.19-5.9-.89C7.94 351 4.06 346.88 0 343zm219 118q-4.74-5.28-9.49-10.56c-.89-1-2.27-1.8-2.62-2.94-.41-1.35-.45-3.89.25-4.27 1.23-.68 3.77-.78 4.66.06 4.35 4.08 8.34 8.56 13.4 13.9 4.29-4.69 7.87-9 12-12.83 1.27-1.19 3.85-1 5.84-1.39-.35 2 0 4.56-1.16 5.89C238.18 442.15 234 446 230 450zm231-219-11.61 10.56c-1.84 1.68-3.71 4-6.29 1.42s-.33-4.49 1.48-6.24c3.82-3.7 7.67-7.35 12.56-12-4.61-4.18-9-7.74-12.8-11.81-1.19-1.25-.92-3.87-1.32-5.87 2 .36 4.5.07 5.91 1.18 4.25 3.3 8.08 7.15 12.07 10.79zM0 220c4-4 7.87-8.13 12.17-11.77 1.34-1.14 3.9-.84 5.9-1.2-.42 2-.21 4.56-1.38 5.88C13.07 217 8.91 220.6 4.31 225c4.47 4.3 8.71 8 12.42 12.15 1.16 1.3 1.88 4.58 1.07 5.72-1.78 2.51-4 .86-5.76-1-4-4-8-8-12-11.94zM230 0c4.09 4.14 8.36 8.12 12.15 12.51 1 1.2.62 3.64.88 5.51-1.87-.29-4.34.08-5.51-1-4.18-3.77-7.92-8-12.83-13.13-4.15 4.6-7.72 9-11.79 12.79-1.26 1.19-3.87.94-5.86 1.35.36-2 .05-4.56 1.19-5.89C211.87 7.87 216 4 220 0zm220 410c-8.71.08-15-5.42-16.33-14.22A16.49 16.49 0 0 1 445.12 378c1.59-.48 3.25-.7 4.88-1v6c-.95.27-1.91.5-2.84.82-5.23 1.82-8 6.17-7.37 11.43s4.36 8.32 10.21 8.75zm-73 40c2.39-12.36 10.36-18.51 20.76-16 7.49 1.81 12.31 8.11 12.24 16h-6c-.71-8.67-9.19-13.5-15.75-8.54-2.48 1.88-3.54 5.64-5.25 8.54zm73-265c-8.56 0-14.9-5.41-16.24-13.77A16.38 16.38 0 0 1 445.12 153a46.88 46.88 0 0 1 4.88-1v6c-7.42 2-10.78 5.8-10.24 11.71.49 5.49 4.06 8.72 10.24 9.29zM410 0c0 8.63-5.6 15.25-13.73 16.25-8.91 1.09-16.36-3.88-18.46-12.34-.32-1.29-.54-2.61-.81-3.91h6c.27 1 .51 1.92.83 2.86 1.78 5.25 6.17 8.14 11.43 7.44S403.59 5.92 404 0zM40 450c0-8.56 5.48-15 13.78-16.23A16.28 16.28 0 0 1 72 445.12c.48 1.59.68 3.25 1 4.88h-6c-2-7.47-5.73-10.75-11.71-10.25-5.4.45-8.73 4.12-9.29 10.25zM0 377c11.55 2.22 17.09 8.44 16.32 18.29C15.62 404.07 9 410.05 0 410v-6c7.19.82 13.4-8.05 9-14.86-1.85-2.81-5.94-4.14-9-6.14zM450 73c-7.17-.75-12.68-3.92-15.35-10.91a15.61 15.61 0 0 1 2.74-16.37c3.21-3.89 7.3-6.25 12.61-5.72v6c-5.64.45-9.25 3.41-10.13 8.31-1.12 6.25 2.28 10.51 10.13 12.69zM0 40c8.34 0 14.93 5.32 16.14 13 1.39 8.91-3.14 16.59-11.3 19-1.57.47-3.22.65-4.84 1v-6c7.63-2.16 10.92-5.87 10.37-11.71C9.87 50 6.07 46.55 0 46zm265 410c.14-9.17 6.81-16.15 15.81-16.54S296.57 439.63 298 450h-6c-1.81-7.37-5.68-10.76-11.68-10.24-5.38.47-8.69 4.1-9.32 10.24zm-113 0c1.26-15.84 17.77-20.47 26.9-12.95 4.06 3.35 6.56 7.46 6.1 12.95h-6c-.62-6.74-5.15-10.88-11.27-10.31-5 .47-7.84 3.46-9.73 10.31zM185 0c-.05 8.57-5.68 15.22-13.76 16.25-8.85 1.13-16.36-3.86-18.5-12.33-.32-1.28-.5-2.61-.74-3.92h6c2.21 7.84 5.95 11 12.22 10.28 5.07-.57 8.2-4.23 8.78-10.28zM73 0c-.73 7.33-4 13-11.17 15.49-6 2.06-11.8 1.18-16.65-3.24C41.62 9 39.49 5 40 0h6c.77 7.91 7.31 12.35 14.16 9.64C64.54 7.9 66.12 4.21 67 0zM0 152c16.37 1.33 20.19 18.18 13 26.95C9.65 183 5.49 185.48 0 185v-6c6.53-.64 10.48-4.56 10.34-10.27S7.18 159.82 0 158zm450 146c-9.48-1.4-14.95-6.19-16.22-14.23a16.07 16.07 0 0 1 9.05-17.26c2.16-1 4.77-1 7.17-1.51v6c-6.21.65-9.76 3.88-10.24 9.32-.51 6 2.88 9.84 10.24 11.68zM0 265c9 .15 15.8 6.29 16.36 14.81C17 289.83 11 296.51 0 298v-6c7.49-1.88 10.82-5.64 10.35-11.67-.41-5.25-4.21-8.68-10.35-9.33zM298 0c-1.35 10.71-8 16.83-17.68 16.38C271.43 16 265.13 9.23 265 0h6c.68 6.18 4.05 9.91 9.33 10.32 6.1.47 9.91-2.9 11.67-10.32zM5 0c4 4 8.12 7.85 11.75 12.14C17.89 13.48 17.63 16 18 18c-2-.37-4.54-.1-5.88-1.24C7.84 13.13 4 9 0 5V0zm440 450c-4.05-4.13-8.28-8.11-12-12.49-1-1.2-.64-3.62-.91-5.48 1.86.27 4.26-.1 5.47.93 4.38 3.76 8.35 8 12.48 12v5zm5-445c-4.12 4.07-8.08 8.33-12.46 12.1-1.2 1-3.63.63-5.5.89.27-1.86-.1-4.27.93-5.48 3.76-4.39 8-8.37 12-12.51h5zM0 445c4-3.93 7.86-8.07 12.14-11.69 1.34-1.13 3.85-.89 5.82-1.28-.36 2-.08 4.52-1.21 5.85C13.12 442.16 9 446 5 450H0zm108.08-220c-4.59-4.41-8.74-8-12.35-12.09-1.17-1.33-.91-3.91-1.31-5.92 2 .38 4.55.11 5.88 1.26 4.13 3.57 7.8 7.68 12.45 12.39 3.87-4.14 7.51-8.13 11.26-12 1.71-1.78 3.76-4.14 6.31-1.74 2.77 2.61.53 4.74-1.52 6.62-3.89 3.56-7.77 7.14-12.5 11.49 5 4.65 9.1 8.51 13.26 12.28 2 1.84 3 4.15.67 5.83-1 .74-4.15 0-5.39-1.16-4.17-3.77-7.93-8-12.47-12.72-4.13 4.4-7.87 8.36-11.59 12.34C99 243.47 97 245.5 94.52 243s-.26-4.52 1.49-6.27c3.76-3.73 7.6-7.38 12.07-11.73zm229.11 4.44c-3.8 4.09-7.39 8-11 11.83-1.84 1.93-4 4.51-6.61 1.7s0-4.85 1.92-6.68c3.68-3.58 7.46-7 12.18-11.49-4.7-4.29-8.74-8-12.75-11.65-1.93-1.8-3.93-4.15-1.09-6.15 1.07-.77 4.38.22 5.74 1.44 4.08 3.65 7.71 7.81 12.4 12.71 4.29-4.74 8-9.24 12.22-13.25 1.1-1.05 3.63-.61 5.5-.85-.33 1.89 0 4.37-1.12 5.57-3.8 4.14-8.09 7.83-12.9 12.36 4.63 4.39 8.58 8.14 12.54 11.88 2 1.86 3.73 4.21 1.08 6.22-1 .78-4.35-.24-5.75-1.45-4.14-3.58-7.84-7.63-12.36-12.19zm-107.58 108.3c4.32 4.18 8.46 7.81 12.07 11.9 1.18 1.34 1 3.87 1.44 5.86-2-.35-4.58 0-5.88-1.17-4.1-3.61-7.71-7.76-12.6-12.84-4 4.49-7.6 8.56-11.24 12.59-1.75 1.93-3.86 3.83-6.33 1.48-2.66-2.52-.28-4.57 1.45-6.28 3.77-3.74 7.69-7.33 12.67-12-4.58-4.12-8.63-7.7-12.61-11.37-1.86-1.71-4.08-3.76-1.59-6.27s4.52-.39 6.31 1.45c3.71 3.8 7.39 7.62 12 12.44 4.05-4.44 7.67-8.48 11.38-12.43 1.74-1.85 3.85-3.93 6.32-1.48s.32 4.55-1.46 6.34c-3.7 3.74-7.54 7.44-11.93 11.78zm-4.02-229.44c4.12-4.52 7.89-8.71 11.72-12.84 1.72-1.85 4.06-3.31 5.79-.7.74 1.11 0 4.21-1.16 5.43-3.83 4.13-8.13 7.84-12.88 12.29 4.76 4.47 9.05 8.17 12.87 12.31 1.13 1.22 1.9 4.33 1.15 5.41-1.69 2.45-4 1.31-5.81-.67-3.84-4.11-7.76-8.14-12.42-13-4.2 4.54-7.8 8.42-11.39 12.31-1.74 1.88-3.65 4.14-6.25 1.76-3-2.71-.37-4.8 1.54-6.59 3.88-3.64 7.88-7.15 12.48-11.31-4.89-4.59-9.1-8.15-12.78-12.2-1.22-1.34-2.18-4.69-1.39-5.76 2.05-2.82 4.33-.73 6.15 1.1 3.79 3.74 7.5 7.53 12.38 12.46zm55.64 281.64c4.58-4.9 8.26-9.19 12.38-13 1.21-1.12 3.65-.92 5.53-1.33-.29 2 .12 4.66-1 5.9-3.67 4-7.91 7.57-12.37 11.7 3.62 3.74 6.57 6.79 9.54 9.83 1.05 1.07 2.58 1.92 3.1 3.19.7 1.73.65 3.77.92 5.67-1.86-.26-4.31.13-5.49-.91-4.22-3.73-8-8-13.15-13.18-4 4.51-7.69 9-11.8 13-1.14 1.12-4.23 1.82-5.32 1.08-2.54-1.74-1.2-4 .67-5.81 3.94-3.83 7.84-7.69 12.31-12.09-4-4-7.85-7.76-11.58-11.67-1.61-1.7-4.39-3.47-1.8-6.22 2.75-2.93 4.79-.43 6.61 1.48 3.65 3.81 7.22 7.76 11.45 12.36zm113.04-113.19c4.09-4.34 7.79-8.61 11.92-12.42 1.2-1.11 4.23-1.81 5.37-1.07 2.71 1.75 1.11 4-.68 5.76-4 4-8.06 7.86-12.87 12.54 4.56 4.24 8.68 8 12.77 11.89 1.79 1.69 3.55 4 .89 5.74-1.22.79-4.5 0-5.84-1.23-4-3.64-7.56-7.84-12.36-13-4.3 4.84-7.73 9.13-11.66 12.88-1.31 1.24-4.77 2.16-5.79 1.37-2.63-2.07-.74-4.35 1.21-6.18 3.86-3.65 7.7-7.34 13-12.43-4.58-3.91-8.74-7.39-12.8-11-1.87-1.66-4.12-3.66-1.7-6.26 2.8-3 4.77-.13 6.6 1.6 3.77 3.59 7.37 7.28 11.94 11.81zM56.33 389.21c4.3-4.41 7.94-8.55 12.06-12.13 1.34-1.16 3.94-.87 6-1.24-.45 2-.27 4.6-1.47 6-3.63 4.06-7.8 7.65-12.68 12.3 4.61 4.21 8.67 7.87 12.66 11.58 1.94 1.8 3.79 4.16 1 6.17-1 .76-4.34-.24-5.68-1.46-4-3.67-7.59-7.83-12-12.5-4.46 4.75-8.3 8.86-12.18 12.95-1.69 1.78-3.93 3.61-5.68.82-.78-1.24 0-4.43 1.16-5.75 3.62-4.08 7.77-7.68 12.81-12.52-4.42-4-8.4-7.41-12.24-11-1.88-1.77-4.66-3.78-1.71-6.56s4.8.21 6.61 2c3.68 3.49 7.24 7.2 11.34 11.34zm341.98 5.05 12.59 11.84c1.89 1.77 3.29 4 .67 5.75-1.13.74-4.14.06-5.36-1-4.2-3.72-8-7.9-12.73-12.7-4.13 4.44-7.94 8.55-11.77 12.64-1.69 1.8-3.91 3.63-5.71 1-.82-1.21-.12-4.49 1-5.79 3.64-4.07 7.82-7.64 12.64-12.2-4.57-4.31-8.82-7.95-12.55-12.06-1.18-1.31-.94-3.89-1.35-5.89 2 .4 4.55.15 5.86 1.31 4.1 3.61 7.73 7.76 12.69 12.88 3.88-4.43 7.42-8.58 11.1-12.61 1.68-1.84 3.72-4 6.29-1.56 2.91 2.81.18 4.73-1.63 6.59-3.56 3.63-7.21 7.25-11.74 11.8zM281.34 164.22c4.25-4.39 7.88-8.54 12-12.16 1.35-1.19 3.93-1 5.95-1.41-.38 2-.1 4.6-1.27 5.9-3.64 4.08-7.83 7.67-13 12.56 4.59 4.08 8.68 7.69 12.73 11.33 2 1.77 3.78 3.84 1.41 6.34-2.62 2.75-4.44.22-6.15-1.53-3.72-3.81-7.37-7.67-11.95-12.45-3.82 4.22-7.13 8.13-10.76 11.72-1.78 1.76-3.66 5.42-6.88 2.29s.05-5.05 2-6.93c3.66-3.59 7.46-7 11.88-11.18-4.52-4.2-8.36-7.63-12-11.24-1.78-1.75-4.82-3.67-2-6.54 3.06-3.08 5 .11 7 2 3.51 3.48 6.93 7.08 11.04 11.3zm-.14-111.46c4.94-5.38 8.72-9.82 12.91-13.84 1-1 3.36-.6 5.09-.84-.2 1.9.31 4.43-.72 5.58-3.85 4.29-8.21 8.14-13 12.74 4.61 4.33 8.82 7.89 12.47 11.93 1.2 1.32 1 3.94 1.37 6-2-.42-4.61-.19-5.95-1.37-4.11-3.6-7.73-7.75-12.52-12.7-4.08 4.52-7.66 8.91-11.73 12.75-1.25 1.18-4.59 1.88-5.73 1.07-2.6-1.85-.73-4.11 1-5.78 4-3.78 8-7.49 13.07-12.2-4.8-4.35-9.16-7.92-13-12-1.18-1.25-1.87-4.56-1.05-5.74 1.82-2.65 4.07-.82 5.72 1 3.87 4.14 7.58 8.37 12.07 13.4zM168.83 60c-4.71 5-8.38 9.36-12.5 13.18-1.17 1.09-3.64.76-5.52 1.08.25-1.89-.18-4.38.87-5.56 3.76-4.2 8-7.95 12.82-12.59-4.35-4.13-8.3-7.89-12.27-11.63-1.93-1.82-3.78-3.87-1.37-6.33 2.61-2.66 4.52-.14 6.24 1.57 3.78 3.74 7.45 7.58 12.14 12.37 3.89-4.3 7.49-8.4 11.24-12.36 1.68-1.77 3.64-4.12 6.27-1.52s.42 4.45-1.43 6.23L172.76 56.6c4.51 4.08 8.85 7.65 12.67 11.69 1.21 1.28 2.11 4.64 1.33 5.66-2 2.68-4.37.87-6.17-1.08-3.71-4.01-7.38-8.06-11.76-12.87zM52.36 281.35c-4.5-4.16-8.33-7.57-12-11.13-1.94-1.89-5.07-4-2-6.94s5 .45 7 2.27c3.6 3.42 7 7 11.49 11.43 3.82-4.23 7.4-8.33 11.13-12.28 1.71-1.81 3.84-4 6.27-1.33 2.31 2.52.28 4.54-1.62 6.31L60.1 281.32c4.75 4.37 8.77 8 12.74 11.73 1.94 1.81 3.76 4.19 1.14 6.22-1 .78-4.42-.19-5.79-1.42-4-3.64-7.6-7.81-12-12.44-4.3 4.57-8.07 8.52-11.77 12.53-1.86 2-4.17 3.63-6.16 1.06-.78-1 .14-4.37 1.35-5.67 3.72-4.01 7.93-7.53 12.75-11.98zM60.58 56c4.71 4.62 8.83 8.27 12.4 12.4 1.18 1.36.91 4 1.3 6-2-.45-4.58-.26-6-1.45-4.11-3.6-7.76-7.73-12.5-12.6-3.92 4.33-7.38 8.6-11.38 12.28-1.41 1.31-5 2.31-6.13 1.47-2.74-2.1-.43-4.34 1.37-6.14 3.76-3.75 7.54-7.49 12.37-12.28-4.24-3.83-8.31-7.44-12.31-11.12-1.87-1.73-4-3.71-1.48-6.28s4.51-.29 6.26 1.47c3.72 3.78 7.37 7.63 12 12.49 4-4.44 7.64-8.48 11.33-12.46 1.74-1.87 4-4.09 6.15-1.39.84 1.08-.16 4.67-1.45 6.13C69.09 48.44 65 51.86 60.58 56zM173 393.91c4.79 4.56 9.07 8.27 12.86 12.43 1.06 1.17.71 3.62 1 5.49-1.87-.23-4.35.22-5.5-.82-4.2-3.75-8-8-12.88-13.1-4.11 4.49-7.85 8.63-11.66 12.71-1.63 1.74-3.45 3.65-5.88 1.29s-.84-4.25.95-6c4-3.77 8-7.46 13.1-12.16-4.83-4.44-9.16-8-12.94-12.12-1.19-1.29-.93-3.91-1.34-5.93 2 .4 4.61.14 5.93 1.32 4.09 3.64 7.69 7.82 12.42 12.77 4.08-4.5 7.7-8.58 11.43-12.55 1.73-1.84 3.75-3.93 6.31-1.38s.29 4.49-1.49 6.22c-3.81 3.77-7.69 7.42-12.31 11.83zM389.64 55.85c-4.59-4.25-8.74-8.07-12.87-11.91-1.9-1.77-3.22-4.09-.58-5.78 1.11-.71 4.13.07 5.31 1.2 4.07 3.86 7.7 8.17 12 12.83 4.65-4.84 8.42-8.8 12.23-12.71 1.82-1.87 4.13-3.9 6.13-.94.75 1.13-.2 4.35-1.41 5.68-3.67 4-7.84 7.62-12.34 11.87 4.54 4.37 8.51 8.1 12.38 11.93 1.78 1.75 4.13 4 1.2 6.11-1.11.8-4.48-.07-5.79-1.28-4-3.71-7.49-8-11.93-12.82-4.54 4.89-8.06 9.1-12.06 12.77-1.36 1.24-4.8 2.24-5.81 1.45-2.59-2-.84-4.34 1.13-6.23 3.77-3.68 7.58-7.44 12.41-12.17zM164.57 168.68c-4.54-4.28-8.71-7.83-12.36-11.86-1.24-1.37-2.24-4.71-1.47-5.78 2-2.76 4.32-.87 6.17 1.07 3.76 3.95 7.54 7.88 12 12.49 4.29-4.58 8-8.6 11.78-12.55 1.81-1.88 4.21-3.79 6.16-.86.74 1.12-.31 4.3-1.52 5.68-3.5 4-7.5 7.54-12.5 12.44 4.42 4 8.6 7.67 12.74 11.43 2 1.79 3.81 4.15.89 6.1-1.11.74-4.33-.3-5.65-1.54-4-3.73-7.49-8-11.87-12.75-4.68 5-8.37 9.3-12.47 13.14-1.18 1.1-4.19 1.84-5.29 1.12-2.63-1.72-1.23-4 .62-5.79 4-3.92 8.07-7.82 12.77-12.34zm-108.14-3.95c4.36-4.7 8-9 12.11-12.82 1.21-1.13 3.66-.92 5.55-1.32-.3 2 .09 4.62-1 5.92-3.58 4.14-7.72 7.78-12.6 12.54 4.26 3.93 8.48 7.39 12.1 11.39 1.32 1.45 2.38 5 1.55 6.16-2 2.87-4.27.63-6.07-1.23-3.69-3.83-7.41-7.63-12-12.37-4.1 4.37-7.91 8.45-11.74 12.51-1.63 1.73-3.42 3.71-5.86 1.45-2.67-2.47-.71-4.52 1.13-6.3 3.94-3.8 8-7.51 12.59-11.89-4.75-4.47-9-8.17-12.82-12.28-1.11-1.21-1.87-4.23-1.14-5.35 1.68-2.6 4-1.29 5.81.56 3.86 4.06 7.74 8.15 12.39 13.03zM389.89 169c-4.95-4.71-9.14-8.31-12.78-12.4-1.18-1.32-.94-3.92-1.35-5.93 2 .41 4.62.17 5.93 1.35 4.05 3.67 7.62 7.89 12.51 13.11 4.3-4.86 8-9.12 11.79-13.27 1.64-1.81 3.61-3.38 5.92-1s.42 4.24-1.27 5.91c-3.88 3.86-7.81 7.69-12.54 12.33 4.44 4.1 8.62 7.89 12.71 11.76 1.76 1.67 3.38 3.64 1 5.94s-4.23.5-5.9-1.25c-3.78-4-7.53-8-11.93-12.62l-12.15 12.7c-1.69 1.76-3.83 3.75-5.7 1-.83-1.2-.22-4.53.94-5.77 3.8-4.01 8.18-7.61 12.82-11.86zM173.07 281.38c4.77 4.55 9.05 8.29 12.83 12.47 1 1.15.64 3.61.9 5.47-1.9-.28-4.41.11-5.61-1-4.2-3.74-7.94-8-12.82-13.06-4.18 4.6-7.75 9-11.82 12.77-1.24 1.15-3.89.79-5.9 1.12.45-2 .29-4.54 1.48-5.91 3.56-4.13 7.65-7.81 12.29-12.41l-12.62-11.66c-1.89-1.75-3.34-4-.79-5.78 1.09-.76 4.17-.14 5.34.94 4.14 3.8 7.85 8.08 12.45 13 4.3-4.63 8-8.65 11.74-12.62 1.78-1.88 3.76-3.82 6.3-1.27s.37 4.23-1.28 5.87c-3.89 3.81-7.85 7.58-12.49 12.07zm108.77-4.08c4.14-4.62 7.73-9 11.77-12.89 1.16-1.12 3.61-.91 5.47-1.31-.25 2 .22 4.68-.89 5.91-3.76 4.16-8.09 7.81-13 12.41 4.88 4.48 9.13 8 12.82 12 1.18 1.29.9 3.93 1.29 5.95-2-.44-4.62-.23-6-1.42-4-3.65-7.62-7.84-12.28-12.77L269.47 298c-1.83 2-4.22 3.63-6.19 1-.77-1 .2-4.41 1.43-5.73 3.7-4 7.92-7.52 12.63-11.85-4.8-4.51-8.8-8.24-12.76-12-1.89-1.8-3.94-4.09-1-6.13 1.1-.77 4.38.18 5.75 1.38 4.05 3.58 7.67 7.69 12.51 12.63zm55.66 56.27c4.54-4.83 8.24-9.12 12.37-12.94 1.21-1.12 4.31-1.85 5.41-1.1 2.6 1.76 1.09 4.1-.75 5.8-4.12 3.82-8.33 7.55-13.53 12.25 4.91 4.38 8.77 7.77 12.57 11.24 1.95 1.79 4.63 3.87 2 6.6-3 3.1-5-.07-6.92-2-3.47-3.57-6.82-7.25-11.49-12.23-3.86 4.45-7.06 8.4-10.56 12.07-1.8 1.88-3.9 5.24-6.95 2.3s.06-5 2.05-6.92c3.72-3.53 7.54-6.95 11.79-10.85-4.87-4.68-9.13-8.42-12.91-12.59-1.1-1.21-.83-3.65-1.2-5.53 2 .31 4.63-.08 5.88 1.06 4.17 3.77 7.81 8.09 12.24 12.84zm-.01-224.94c4.44-4.8 8.12-8.82 11.85-12.79 1.79-1.9 4.11-3.89 6.15-1.09.79 1.08-.12 4.44-1.34 5.76-3.72 4-8 7.49-13 12.08 5.06 4.58 9.45 8.17 13.28 12.28 1.13 1.21.7 3.89 1 5.9-1.88-.42-4.34-.24-5.53-1.38-4.05-3.91-7.65-8.29-12.15-13.28-4.64 5-8.16 9.23-12.15 12.93-1.34 1.24-4.67 2.26-5.73 1.5-2.74-2-1-4.33 1-6.16l12.7-11.83c-4.7-4.38-8.71-8.09-12.67-11.85-1.89-1.79-3.75-3.82-1.18-6.29 2.36-2.28 4.25-.43 5.88 1.31 3.75 4 7.4 8.05 11.89 12.91zm-225.03 8.07c-4.5 4.72-8.3 8.67-12 12.67-1.77 1.89-4 3.44-5.78 1-.8-1.13 0-4.43 1.18-5.76 3.63-4.08 7.8-7.69 12.61-12.29l-12.63-11.65c-2-1.81-3.82-4.13-1.1-6.16 1.05-.79 4.4.18 5.76 1.39 4.07 3.65 7.67 7.81 12.2 12.56 4.26-4.62 7.78-8.86 11.79-12.56 1.33-1.23 4.71-2.17 5.76-1.38 2.75 2 .8 4.33-1.13 6.15L117 112.11c4.42 4.46 8.54 8.24 12.14 12.47 1.17 1.37 1 3.91 1.4 5.91-2-.37-4.59-.09-5.89-1.24-4.05-3.63-7.65-7.81-12.19-12.55zm.11 224.93c-4.6 4.86-8.36 8.84-12.14 12.81-1.73 1.83-4 3.48-5.78.91-.81-1.17 0-4.41 1.13-5.76 3.56-4.14 7.66-7.82 12.43-12.55-4.3-3.93-8.37-7.56-12.35-11.3-1.87-1.75-4-4.06-1.1-6.12 1.11-.78 4.42.12 5.77 1.33 4.06 3.65 7.65 7.83 12.06 12.46 4.3-4.59 8-8.6 11.79-12.58 1.83-1.94 4.2-3.76 6.16-.94.77 1.09-.24 4.38-1.48 5.72-3.68 4-7.88 7.55-12.56 11.9 4.42 4.12 8.14 7.43 11.67 10.93 1.9 1.87 5.22 3.91 2.36 7s-5.06 0-7-2c-3.44-3.59-6.77-7.3-10.96-11.81zM229.43 225c4.71 4.56 8.95 8.32 12.71 12.52 1 1.18.65 3.65.91 5.52-1.88-.26-4.33.14-5.54-.9-4.28-3.66-8.13-7.81-13.29-12.91-3.72 4.18-7.25 8.56-11.28 12.42-1.24 1.2-4.6 2-5.66 1.23-2.8-2.07-.77-4.27 1.11-6.11 3.8-3.72 7.56-7.48 12.5-12.37-4.26-3.82-8.61-7.36-12.45-11.39-1.21-1.28-2.12-4.58-1.35-5.69 2-2.93 4.28-.87 6.08 1 3.75 3.95 7.48 7.92 11.69 12.39 4.42-4.58 8.18-8.53 12-12.43 1.79-1.83 4.05-4 6.1-1 .78 1.11-.11 4.36-1.3 5.7-3.66 4.08-7.74 7.7-12.23 12.02zm180.86 0a16.47 16.47 0 0 1-16.87 16.57c-8.61-.06-16.06-7.54-16.26-16.32-.2-9 7.66-16.93 16.77-16.89A16.63 16.63 0 0 1 410.29 225zm-6.17-.07a10.26 10.26 0 0 0-10.38-10.35 10.53 10.53 0 0 0-10.4 10.49 10.41 10.41 0 0 0 10.53 10.31A10.14 10.14 0 0 0 404.12 225zM225 410.29a16.56 16.56 0 0 1-16.59-16.38 16.59 16.59 0 0 1 33.17-.46A16.41 16.41 0 0 1 225 410.29zm-.07-6.12a10.17 10.17 0 0 0 10.45-10.29 10.39 10.39 0 1 0-10.45 10.29zM112.66 39.81a16.27 16.27 0 0 1 16.41 16.45A16.55 16.55 0 1 1 96 56a16.25 16.25 0 0 1 16.66-16.19zm.13 6A10.31 10.31 0 0 0 102.08 56a10.83 10.83 0 0 0 10.14 10.87c5.44.22 10.55-4.68 10.73-10.3a10.36 10.36 0 0 0-10.16-10.71zm-.33 219.07a16.43 16.43 0 0 1 16.62 16.25 16.66 16.66 0 0 1-16.29 16.69 16.47 16.47 0 1 1-.33-32.94zm10.48 16.51a10.43 10.43 0 1 0-20.85-.19 10.69 10.69 0 0 0 10.31 10.66 10.82 10.82 0 0 0 10.54-10.47zM39.82 112.23A16.26 16.26 0 0 1 56.41 96a16.56 16.56 0 1 1-.57 33.11 16.33 16.33 0 0 1-16.02-16.88zm16.41-10.13a10.43 10.43 0 0 0 0 20.86c5.66-.07 10.59-5 10.54-10.46a10.63 10.63 0 0 0-10.54-10.4zm208.65 235.31A16.26 16.26 0 0 1 281.32 321a16.55 16.55 0 1 1-.31 33.1 16.36 16.36 0 0 1-16.13-16.69zm27-.07a10.83 10.83 0 0 0-10.77-10.23 10.43 10.43 0 0 0 .39 20.89 10.69 10.69 0 0 0 10.35-10.66zm62.23-56.17a16.56 16.56 0 1 1-33.11 0 16.56 16.56 0 0 1 33.11 0zm-16.64 10.71A10.74 10.74 0 0 0 348 281.39a10.43 10.43 0 1 0-20.86-.18 10.81 10.81 0 0 0 10.33 10.67zm.39-252.05a16.33 16.33 0 0 1 16.27 16.58 16.57 16.57 0 1 1-33.13-.59 16.35 16.35 0 0 1 16.86-15.99zM348 56.08a10.43 10.43 0 0 0-20.86.32c.13 5.67 5.07 10.55 10.59 10.44A10.88 10.88 0 0 0 348 56.08zm-83.13 56.54a16.47 16.47 0 1 1 32.93 0 16.57 16.57 0 0 1-16.52 16.43 16.35 16.35 0 0 1-16.41-16.43zm16.49 10.31a10.42 10.42 0 1 0-.13-20.84 10.42 10.42 0 1 0 .13 20.84zm-56.47 62.28a16.39 16.39 0 0 1-16.44-16.44 16.53 16.53 0 1 1 33.06.21 16.3 16.3 0 0 1-16.62 16.23zm.07-6.1a10.13 10.13 0 0 0 10.41-10.3 10.43 10.43 0 0 0-10.3-10.55 10.66 10.66 0 0 0-10.51 10.43A10.38 10.38 0 0 0 225 179.11zM56 321a16.55 16.55 0 1 1 .17 33.1A16.55 16.55 0 0 1 56 321zm.34 27a10.45 10.45 0 1 0-.23-20.89 10.45 10.45 0 0 0 .25 20.89zm353.98-10.51A16.56 16.56 0 0 1 394 354.12a16.57 16.57 0 1 1-.14-33.13 16.5 16.5 0 0 1 16.46 16.5zm-6.19.26A10.26 10.26 0 0 0 394 327.11a10.44 10.44 0 1 0-.44 20.87 10.29 10.29 0 0 0 10.57-10.23zM225.17 39.83a16.26 16.26 0 0 1 16.43 16.43 16.59 16.59 0 1 1-33.17-.26 16.45 16.45 0 0 1 16.74-16.17zm10.16 16.31a10.23 10.23 0 0 0-10.45-10.31 10.68 10.68 0 0 0-10.38 10.56c.18 5.59 5.26 10.6 10.62 10.45a10.5 10.5 0 0 0 10.21-10.7zM168.51 96a16.57 16.57 0 0 1 .25 33.14 16.57 16.57 0 0 1-.25-33.14zm10.59 16.29a10.32 10.32 0 0 0-10.59-10.18A10.45 10.45 0 1 0 169 123a10.31 10.31 0 0 0 10.1-10.76zm158.73 72.93A16.39 16.39 0 0 1 321 169.15a16.57 16.57 0 1 1 33.13-.56 16.44 16.44 0 0 1-16.3 16.63zm-.18-6.09A10.32 10.32 0 0 0 348 168.66a10.44 10.44 0 1 0-20.88.21 10.29 10.29 0 0 0 10.53 10.26zm-152.39 45.99a16.56 16.56 0 1 1-33.12-.47c.24-9 8-16.45 16.85-16.23a16.58 16.58 0 0 1 16.27 16.7zm-6.19-.18a10.24 10.24 0 0 0-10.41-10.33 10.4 10.4 0 1 0 .21 20.8 10.08 10.08 0 0 0 10.2-10.47zm-66.52-39.73A16.35 16.35 0 0 1 96 168.93a16.56 16.56 0 1 1 33.11-.1 16.37 16.37 0 0 1-16.56 16.38zm0-6.09A10.3 10.3 0 0 0 123 168.79a10.44 10.44 0 1 0-20.87 0 10.27 10.27 0 0 0 10.37 10.33zM393.88 96a16.57 16.57 0 1 1-.38 33.13 16.57 16.57 0 0 1 .38-33.13zm10.27 16.42a10.21 10.21 0 0 0-10.46-10.27 10.43 10.43 0 1 0 .24 20.85 10.33 10.33 0 0 0 10.22-10.63zM96 393.61a16.56 16.56 0 0 1 33.11.17 16.56 16.56 0 1 1-33.11-.17zm16.49 10.58A10.33 10.33 0 0 0 123 393.86a10.42 10.42 0 1 0-20.84-.09 10.25 10.25 0 0 0 10.3 10.42zm-72.67-179.1a16.5 16.5 0 0 1 16.74-16.65 16.81 16.81 0 0 1 16.29 16.77 16.61 16.61 0 0 1-16.65 16.34 16.22 16.22 0 0 1-16.38-16.46zm16.49 10.24A10.49 10.49 0 0 0 66.81 225c0-5.45-5.06-10.42-10.6-10.45a10.62 10.62 0 0 0-10.35 10.56 10.15 10.15 0 0 0 10.45 10.22zm280.96 174.95A16.38 16.38 0 0 1 321 393.16a16.54 16.54 0 0 1 33.07 1 16.39 16.39 0 0 1-16.8 16.12zm0-6.12A10.35 10.35 0 0 0 348 394a10.43 10.43 0 1 0-20.85-.46 10.31 10.31 0 0 0 10.16 10.62zm-39.45-178.85a16.62 16.62 0 0 1-16.67 16.31 16.6 16.6 0 1 1 16.67-16.31zm-16.76 10.11a10.57 10.57 0 0 0 10.79-10.15c.21-5.67-5-10.84-10.8-10.72a10.62 10.62 0 0 0-10.21 10.23 10.43 10.43 0 0 0 10.22 10.64zm-95.84 102A16.39 16.39 0 0 1 169 354.11a16.55 16.55 0 0 1-.76-33.09 16.34 16.34 0 0 1 16.98 16.4zm-6.11.16a10.27 10.27 0 0 0-10.33-10.46 10.43 10.43 0 1 0-.06 20.86 10.28 10.28 0 0 0 10.39-10.4zm46.1-72.71a16.23 16.23 0 0 1 16.33 16.49 16.55 16.55 0 1 1-16.33-16.49zm10.16 16.45A10.3 10.3 0 0 0 225 270.85a10.6 10.6 0 0 0-10.51 10.43A11 11 0 0 0 225 291.89a10.59 10.59 0 0 0 10.37-10.57z"/></svg>