<svg xmlns="http://www.w3.org/2000/svg" viewBox="0 0 180 105"><defs><style>.cls-1{fill:#fff;}</style></defs><g id="Layer_2" data-name="Layer 2"><g id="Layer_1-2" data-name="Layer 1"><g id="bhzhBZ.tif"><path class="cls-1" d="M7.36,68.13,0,67V90H7.19c.26,2.79.44,4.88.69,7.56H30V105H143l-.43-7.62h22.51V89.93h-29.9l-.36,7.21H37.9c-.31-2.54-.57-4.75-.88-7.34H7.43V68Z"/><path class="cls-1" d="M180,60h-7.14l-.65-7.13-7-.69-.4-7.07H142.6V22.94l-7.37-.78-.44-7.08H119.93l.14-.15v7.68h15V44.79l7.08.44.77,7.37h21.78l.61,7.19,7,.5v22.6l-.2-.2L180,83Z"/><path class="cls-1" d="M52,0q.33,4.08.65,8.14L52.43,8H67.57l-.21.17L68,0Z"/><path class="cls-1" d="M97.36,23.13l-14.72,0a1.11,1.11,0,0,0-.07-.16v6.69H97.43V23Z"/><path class="cls-1" d="M119.93,15.08V7.85H105.08v7.22l-.15-.14h15.14Z"/><path class="cls-1" d="M97.36,23.13l.07-.18,7.5-.88V14.93l.15.14H97.75C97.61,17.92,97.49,20.52,97.36,23.13Z"/><path class="cls-1" d="M82.57,23a1.11,1.11,0,0,1,.07.16v-8H74.93l.14-.15v7.2Z"/><path class="cls-1" d="M67.36,8.12,67.57,8v7h7.5l-.14.15V7.49Z"/><path class="cls-1" d="M7.36,68.13,7.43,68l7.63-.9V52.86l7.16-.76c.21-2.47.4-4.58.6-6.83l7.28-.61V22.47H44.93V14.93l.14.15H30.33l-.6,7.1-7.12.63V44.72l-7.29.49c-.19,2.29-.38,4.54-.58,7l-7.38.66Z"/><path class="cls-1" d="M52.43,8l.22.19c-2.35-.24-4.71-.5-7.58-.81v7.75l-.14-.15h7.5Z"/><path class="cls-1" d="M172.32,82.89l-7.39-.49v7.67h7.52c-.12-2.7-.23-5-.33-7.38Z"/></g></g></g></svg>