<svg id="Layer_1" data-name="Layer 1" xmlns="http://www.w3.org/2000/svg" viewBox="0 0 555.03 333.03"><defs><style>.cls-1{fill:#010000;}.cls-2{fill:#b31b1b;}.cls-3{fill:#fc5620;}.cls-4{fill:#fe9601;}</style></defs><path class="cls-1" d="M303,7c35.31,0,70.62.09,105.92-.09,4.16,0,5.3,1,5.14,5.14-.35,9.15.12,18.32-.21,27.47-.14,3.86,1.06,4.59,4.69,4.57,33.81-.15,67.62,0,101.43-.2,4.28,0,5.22,1.16,5.06,5.22-.33,8.65.31,17.34-.25,26-.34,5.35,1.56,6.23,6.31,6,8.81-.38,17.65.06,26.47-.19,3.4-.09,4.56.66,4.46,4.29-.28,9.49-.26,19,0,28.48.09,3.47-.8,4.42-4.35,4.4-21.81-.18-43.63,0-65.45-.18-3.52,0-4.45.87-4.36,4.38.26,9.65-.06,19.32.17,29,.08,3.21-.94,3.86-3.92,3.8-9.33-.19-18.67.25-28-.21-4.68-.23-5.42,1.39-5.27,5.53.32,8.82-.12,17.66.2,26.48.14,4-.74,5.26-5.05,5.23-33.64-.21-67.28,0-100.93-.21-4,0-5.39.76-5.21,5.06.37,9.32,0,18.66.19,28,.08,3.24-.8,4.14-4.09,4.12-23.32-.14-46.64-.06-70-.06l0,0c0-10.82.13-21.64,0-32.45,0-3.42.92-4.7,4.49-4.61,9,.21,18-.23,26.95.18,4.83.21,5.81-1.55,5.7-5.95-.24-10.31,0-20.63.08-30.94,23.11-.07,46.22-.19,69.33-.12,3.43,0,4.64-.92,4.55-4.47-.22-9.31.1-18.63-.15-27.93-.1-3.8,1.18-4.83,4.85-4.73,9.31.24,18.62,0,27.93.13,3.18.06,4.42-.86,4.36-4.21-.18-9.47-.21-19,0-28.43.08-3.56-1.14-4.54-4.57-4.49-10.8.17-21.61.05-32.42,0q0-16.41-.07-32.84c0-2.22.25-4.25-3.16-4.18-11.27.22-22.54.22-33.81.3l-36.83-.45q-.1-18.37-.22-36.76Z" transform="translate(-7.01 66.98)"/><path class="cls-1" d="M81-29.95c0-11.16.11-22.32,0-33.47,0-2.87.85-3.57,3.63-3.56q88.92.11,177.84,0c2.78,0,3.67.69,3.63,3.56C265.92-52.27,266-41.11,266-30l0,0H81.07Z" transform="translate(-7.01 66.98)"/><path class="cls-1" d="M44,192c-11.15,0-22.31-.1-33.47,0-2.86,0-3.56-.84-3.56-3.62Q7.12,99.53,7,10.61C7,7.83,7.71,7,10.57,7,21.73,7.14,32.89,7,44,7l0,0V192Z" transform="translate(-7.01 66.98)"/><path class="cls-1" d="M266,229c0,11.16-.11,22.32.05,33.47,0,2.87-.85,3.57-3.63,3.56q-88.92-.1-177.84,0c-2.79,0-3.67-.69-3.63-3.56.16-11.15.06-22.31,0-33.47l0,0H266Z" transform="translate(-7.01 66.98)"/><path class="cls-1" d="M44,7c0-11.15.1-22.3,0-33.45,0-2.82.77-3.63,3.6-3.59,11.14.15,22.29.05,33.44.05l0,0c0,10.93-.13,21.86,0,32.79,0,3.25-1,4.29-4.25,4.24C65.94,7,55,7.06,44.08,7.07Z" transform="translate(-7.01 66.98)"/><path class="cls-1" d="M266-30c11.15,0,22.3.11,33.44,0,2.83,0,3.63.77,3.59,3.59C302.92-15.26,303-4.11,303,7l0,0c-10.92,0-21.85-.11-32.77,0-3.23,0-4.3-1-4.25-4.26.16-10.92,0-21.85,0-32.77Z" transform="translate(-7.01 66.98)"/><path class="cls-1" d="M81,229c-11.14,0-22.29-.1-33.44.05-2.83,0-3.63-.77-3.6-3.59.15-11.15.06-22.3,0-33.45l0,0c10.92,0,21.85.1,32.77-.07,3.29,0,4.29,1.07,4.25,4.28-.14,10.93,0,21.85,0,32.78Z" transform="translate(-7.01 66.98)"/><path class="cls-2" d="M81.07,229c0-10.93-.11-21.85,0-32.78,0-3.21-1-4.33-4.25-4.28-10.92.17-21.85.07-32.77.07V7.07c10.93,0,21.86-.12,32.78,0,3.26,0,4.29-1,4.25-4.24-.17-10.93,0-21.86,0-32.79H266c0,10.92.13,21.85,0,32.77,0,3.27,1,4.3,4.25,4.26,10.92-.15,21.85-.05,32.77,0q.12,18.38.22,36.76l-.42.43c-2.15-.07-4.3-.21-6.45-.21q-33.6-.07-67.21-.12c0-10.82-.15-21.65-.05-32.47,0-3-.57-4.49-4.07-4.47q-51.46.15-102.93,0c-3.49,0-4.14,1.43-4.09,4.48.15,8.82-.31,17.67.19,26.47.3,5.34-1.62,6.43-6.48,6.22-8.64-.38-17.32,0-26-.17-3.24-.06-4.76.6-4.75,4.34q.19,51.21,0,102.42c0,3.73,1.49,4.4,4.73,4.34,8.66-.17,17.32-.06,26-.06,6.35,0,6.35,0,6.35,6.59,0,8.66.16,17.32-.07,26-.09,3.58,1.19,4.5,4.6,4.49q51-.15,101.92,0c4,0,4.66-1.5,4.61-5-.16-10.65,0-21.31,0-32,2.82,0,5.64-.1,8.46-.11l65.2-.21.39.4c-.06,10.31-.32,20.63-.08,30.94.11,4.4-.87,6.16-5.7,5.95-9-.41-18,0-26.95-.18-3.57-.09-4.54,1.19-4.49,4.61.16,10.81,0,21.63,0,32.45Z" transform="translate(-7.01 66.98)"/><path class="cls-2" d="M377.07,81c10.81,0,21.62.13,32.42,0,3.43,0,4.65.93,4.57,4.49-.22,9.47-.19,19,0,28.43.06,3.35-1.18,4.27-4.36,4.21-9.31-.16-18.62.11-27.93-.13-3.67-.1-4.95.93-4.85,4.73.25,9.3-.07,18.62.15,27.93.09,3.55-1.12,4.48-4.55,4.47-23.11-.07-46.22,0-69.33.12l-.39-.4c.07-10.49.32-21,.13-31.46-.08-4,.9-5.57,5.21-5.42,9,.32,18-.11,27,.19,4.11.14,5-1.33,5-5.14-.22-10.66-.07-21.32-.06-32l-.06,0Z" transform="translate(-7.01 66.98)"/><path class="cls-2" d="M303.2,43.83l36.83.45q0,18.39-.07,36.78l.06,0c-10.48,0-21-.26-31.43.14-4.87.19-5.77-1.62-5.68-6,.22-10.3-.05-20.61-.13-30.92Z" transform="translate(-7.01 66.98)"/><path class="cls-3" d="M340,81.06q0-18.39.07-36.78c11.27-.08,22.54-.08,33.81-.3,3.41-.07,3.16,2,3.16,4.18q0,16.43.07,32.84Z" transform="translate(-7.01 66.98)"/><path class="cls-3" d="M229.13,155.13c0,10.66-.2,21.32,0,32,0,3.49-.62,5-4.61,5q-51-.22-101.92,0c-3.41,0-4.69-.91-4.6-4.49.23-8.65.08-17.31.07-26,0-6.58,0-6.59-6.35-6.59-8.66,0-17.32-.11-26,.06-3.24.06-4.74-.61-4.73-4.34q.19-51.21,0-102.42c0-3.74,1.51-4.4,4.75-4.34,8.65.17,17.33-.21,26,.17,4.86.21,6.78-.88,6.48-6.22-.5-8.8,0-17.65-.19-26.47,0-3.05.6-4.49,4.09-4.48Q173.54,7.15,225,7c3.5,0,4.1,1.43,4.07,4.47-.1,10.82,0,21.65.05,32.47l-.22.23c-23.31,0-46.62,0-69.93-.17-3.12,0-4,1.16-4,4.11.12,9.49-.09,19,.11,28.48.08,3.54-1.16,4.58-4.6,4.52-9.49-.19-19,0-28.47-.11-3,0-4.1,1-4,4.05.14,9.49.18,19,0,28.47-.07,3.48,1.05,4.66,4.57,4.58,9.32-.2,18.65.06,28-.13,3.46-.07,4.68,1,4.6,4.53-.2,9.49,0,19-.11,28.48-.05,3,.87,4.11,4,4.1,23.31-.14,46.62-.13,69.93-.17Z" transform="translate(-7.01 66.98)"/><path class="cls-3" d="M302.78,44.26c.08,10.31.35,20.62.13,30.92-.09,4.35.81,6.16,5.68,6,10.46-.4,21-.14,31.43-.14,0,10.65-.16,21.31.06,32,.07,3.81-.87,5.28-5,5.14-9-.3-18,.13-27-.19-4.31-.15-5.29,1.39-5.21,5.42.19,10.48-.06,21-.13,31.46l-65.2.21c-2.82,0-5.64.07-8.46.11l-.22-.23L229,118c10.78,0,21.57-.08,32.35.07,3.26,0,4.82-.67,4.73-4.37q-.33-14.17,0-28.37c.09-3.72-1.48-4.4-4.73-4.36-10.78.15-21.57.07-32.35.07l-.1-36.89.22-.23q33.6.06,67.21.12C298.48,44.05,300.63,44.19,302.78,44.26Z" transform="translate(-7.01 66.98)"/><path class="cls-4" d="M229,118l-.09,36.89c-23.32,0-46.63,0-69.94.17-3.11,0-4-1.14-4-4.1.12-9.49-.09-19,.11-28.48.08-3.54-1.14-4.6-4.6-4.53-9.32.19-18.65-.07-28,.13-3.52.08-4.64-1.1-4.57-4.58.2-9.49.16-19,0-28.47,0-3,1-4.1,4-4.05,9.49.13,19-.08,28.47.11,3.44.06,4.68-1,4.6-4.52-.2-9.49,0-19-.11-28.48,0-3,.86-4.13,4-4.11,23.31.14,46.62.13,69.93.17q0,18.45.1,36.89l0,0c-10.79,0-21.57.17-32.35-.05-3.81-.08-4.83,1.24-4.74,4.88.23,9,.26,17.92,0,26.87-.13,4.05,1,5.52,5.24,5.41,10.61-.28,21.23-.08,31.85-.07Z" transform="translate(-7.01 66.98)"/><path class="cls-4" d="M229,81.05c10.78,0,21.57.08,32.35-.07,3.25,0,4.82.64,4.73,4.36q-.33,14.18,0,28.37c.09,3.7-1.47,4.42-4.73,4.37-10.78-.15-21.57-.07-32.35-.07l0,0V81Z" transform="translate(-7.01 66.98)"/><path class="cls-3" d="M229,81v37c-10.62,0-21.24-.2-31.85.08-4.26.11-5.37-1.36-5.24-5.41.26-8.95.23-17.92,0-26.87-.09-3.64.93-5,4.74-4.88C207.47,81.18,218.25,81,229,81Z" transform="translate(-7.01 66.98)"/></svg>