<svg xmlns="http://www.w3.org/2000/svg" viewBox="0 0 158.74 88.68"><defs><style>.cls-1{fill:#425366}.cls-2{fill:#afb9c3}.cls-3{fill:#d3dce0}.cls-4{fill:#ebeced}.cls-5{fill:#fafbfb}</style></defs><g id="Layer_2" data-name="Layer 2"><g id="Layer_1-2" data-name="Layer 1"><path class="cls-1" d="M55 82.35a11.67 11.67 0 01-1.46-6.69c.32-7.14.49-14.29.76-21.43a21.43 21.43 0 01.48-2.94c.48-2.57 1.39-5.12-.52-7.6-.81-1-.76-2.5-.71-3.85.26-7.56.17-15.15.86-22.67.43-4.76 1.89-9.43 3.11-14.09C58.12 1 60.49-.23 63.24 0a167.16 167.16 0 0024.41.6c2.73-.13 5.46-.44 8.2-.6 3.35-.18 5.15 1.41 6.08 4.63 3.44 12 2.75 24.36 3.15 36.63a4.17 4.17 0 01-.54 2.38c-1.44 2.05-1.14 4.22-.8 6.45 1.42 9.4 1 18.89 1.36 28.34 0 1.31-.67 2.38-1.12 3.54a8.12 8.12 0 01-6.66 2.65q-17.7-.15-35.41 0A9.39 9.39 0 0155 82.35zm43.78-42.24a1 1 0 00-1.14-.83 7 7 0 00-3-.09c-4.54.36-9.07.68-13.63.71a169.62 169.62 0 01-17.6-.76c-1.7-.16-3.39-.12-3.91 2.06a.92.92 0 00-.31 1c-.17.83-.35 1.67-.52 2.5-.42.23-.43.6-.34 1-.11.64-.21 1.29-.32 1.93-2.3 5.49-1.71 11.3-1.85 17a4.76 4.76 0 00-.11 3c-.05 3.54-.2 6.97-.28 10.37a2.26 2.26 0 00.83 2.18 1.25 1.25 0 00.91 1.1c.86 1.37 2.28 1.24 3.57 1.25h36.68c1.3 0 2.71.1 3.56-1.26a.4.4 0 00.34-.26c1.61-1 1.45-2.66 1.42-4.21q-.26-10.55-.57-21.09a18.15 18.15 0 00-1.35-7l-.14-1a1.38 1.38 0 00-.43-1.51l-.27-1.46a3.38 3.38 0 00-.62-2.57l-.15-1a.93.93 0 00-.77-1.06zm.82-2.49c.22.71.86.7 1.42.83a10.9 10.9 0 001.57 4.14V27.78c0-5.37.54-10.79-1.42-16l-.15-1a1.41 1.41 0 00-.42-1.52c-.21-1-.42-2-.62-3a.87.87 0 00-.28-1l-.15-1a1.19 1.19 0 00-1-1.4 1.46 1.46 0 00-1.44-.64 1 1 0 00-1.5 0l-4 .21a10.18 10.18 0 00-4.52.35h-16a15 15 0 00-5.51-.4l-2.46-.14a1 1 0 00-1.5 0c-3.13.65-2.43 3.43-3.05 5.48a.85.85 0 00-.31 1l-.23 1.45A21.2 21.2 0 0056.35 18q-.35 11-.61 22.08c0 .93-.34 2 .74 2.84 1.12-1.32 1-3.13 1.86-4.48.4-.18.87-.28.93-.84a1.59 1.59 0 001.49-.53 26.57 26.57 0 013 0A180.57 180.57 0 0091 37.4a.86.86 0 001.12-.11l5.46-.44a3.53 3.53 0 002.02.77zM2 83.12a10.26 10.26 0 01-2-7.25c.24-4.06.46-8.14.31-12.2-.26-7.75 1.42-15.17 3.26-22.59A5.1 5.1 0 019.27 37a183.78 183.78 0 0033.09 0c3-.26 4.91 1.45 5.79 4.31 3.74 12.06 2.76 24.51 3.27 36.84a7 7 0 01-.84 3.36c-2.4 2.86-5.52 3.24-9.07 3.18-11-.18-22-.1-33.08 0A11.53 11.53 0 012 83.12zm2-33.95a14.13 14.13 0 00-1.3 5.71c-.22 7.35-.46 14.7-.67 22.06 0 1.68.11 3.32 1.77 4.32.84 1.19 2.14 1.14 3.37 1.17h36.78c3.11 0 3.55-.32 4.33-2.67.74.22.89-.39.92-.82a28.84 28.84 0 00.08-3.72c-.59-10.73.28-21.59-2.84-32.12-1-3.44-1.56-4.15-5.09-3.91-.9.06-1.79.26-2.69.39a1.48 1.48 0 00-1.41.15 5.26 5.26 0 00-3 .2h-18a40.18 40.18 0 00-7.58-.76 2.65 2.65 0 00-2.93 2.13c-.59 2.57-1.51 5.14-1.67 7.87zm105 33.66a11.8 11.8 0 01-1.64-7.38c.29-6.73.36-13.47.66-20.2.23-5.19 1.91-10.12 3.24-15.08.66-2.42 2.85-3.45 5.33-3.22a184.22 184.22 0 0033.13 0c3-.27 5 1.34 5.75 4.36 1.69 6.87 3.22 13.74 2.95 20.91-.13 3.57.09 7.15.23 10.72.13 3.15.46 6.3-1.14 9.22a8.5 8.5 0 01-6.51 2.47q-17.58-.13-35.16 0a11.25 11.25 0 01-6.84-1.8zm47.16-3.08l.39-1.06a1.86 1.86 0 000-2l-.26-9c-.12-5-.1-10-.42-15a10.64 10.64 0 00-1.33-4.95l-.22-1.45a.83.83 0 00-.29-1c-1-6.35-1.15-6.47-7.45-5.93a161.88 161.88 0 01-28.62-.1c-4.06-.38-4.61.09-5.31 4a.81.81 0 00-.31 1l-.25 1.45a1.47 1.47 0 00-.43 1.51l-.49 2.49A8 8 0 00110 54c-.32 7.76-.55 15.52-.77 23.28 0 1.59.19 3.15 1.8 4a1.77 1.77 0 001.56.86 2.64 2.64 0 001.89.43h37c1.22 0 2.52 0 3.36-1.14l.27-.63c.68-.03 1.06-.34 1.02-1.05z"/><path class="cls-2" d="M55 82.35a9.39 9.39 0 006.87 2.28q17.7-.15 35.41 0A8.12 8.12 0 00104 82c.53 5.46-.57 6.69-6 6.69H61.59a13.66 13.66 0 01-2.48-.14c-4.2-.79-4.89-1.87-4.11-6.2zm-53 .77a11.53 11.53 0 006.4 1.5c11-.07 22.06-.15 33.08 0 3.55.06 6.67-.32 9.07-3.18-.13 1.48-.2 3-.4 4.43a2.91 2.91 0 01-1.91 2.15 7.51 7.51 0 01-3.15.62L7 88.68a8.83 8.83 0 01-3.63-.77c-2.26-1-2.65-2.47-1.37-4.79zm107-.29a11.25 11.25 0 006.83 1.8q17.58-.13 35.16 0a8.5 8.5 0 006.52-2.46c1.09 4-.64 6.43-4.82 6.47-6.3.07-12.6 0-18.9 0h-20.13c-4.18-.02-5.58-1.84-4.66-5.81z"/><path class="cls-3" d="M61.73 29.23c-1.64.13-.51 2.28-1.89 2.61-.26-.43.16-1.1-.68-1.52.4 2.87-1.38 5.35-.82 8.12-.87 1.35-.74 3.16-1.86 4.48-1.08-.84-.77-1.91-.74-2.84Q56 29 56.35 18a21.2 21.2 0 011.77-7.67c1.64 2.91 1 6 .92 9.12-.82-.15-1.15.22-1.31 1-.86 4.3.16 6.55 4 8.78zm37.44 37.48l-.54-.91c2.64-2.36 3.59-8.68 1.9-12.58-.79-1.64-.26-3.09.63-4.49a18.15 18.15 0 011.35 7q.33 10.54.57 21.09c0 1.55.19 3.19-1.42 4.21-.17-.44-.35-.89-.53-1.33.65-.85 0-.94-.62-1a13 13 0 01-.81-5.55c1.35-1.53 1.09-4.7-.53-6.44z"/><path class="cls-4" d="M60.74 65.92l-.45.8c-1.14 0-1.31 1-1.38 1.74-.4 3.91-1.4 7.75-1.19 11.72H56.6a2.26 2.26 0 01-.83-2.18c.08-3.43.21-6.86.33-10.29a2.17 2.17 0 00.11-3c.14-5.72-.45-11.53 1.85-17a5 5 0 01.68 5.48c-1.06.29-1 1.16-1 2 0 1.65.06 3.3-.09 4.92-.27 2.64.64 4.61 3.09 5.81z"/><path class="cls-3" d="M57.51 81.31a31.6 31.6 0 006.44.41h31.68a25.85 25.85 0 005.69-.42c-.85 1.36-2.26 1.25-3.56 1.26H61.08c-1.29-.01-2.71.12-3.57-1.25z"/><path class="cls-2" d="M100.4 18.78c-.4-2.4-.67-4.79.77-7 2 5.2 1.39 10.62 1.42 16l-2-.53v-1.47c.84-2.38 1.14-4.72-.19-7zM58.34 38.44c-.56-2.77 1.22-5.25.82-8.12.84.42.42 1.09.68 1.52l-.18 3.42c-.65.69-.46 1.53-.39 2.34-.06.56-.53.66-.93.84z"/><path class="cls-5" d="M25.2 59.55c0-.88-.66-.85-1.22-.86h-6c-.64 0-1.62.15-1.67-.66-.17-2.74-1.6-1.5-2.82-1s-2.59 1.08-3.89 1.6c-.46.18-1.05.22-1 .87 0 .47.44.62.83.79 1.52.64 3 1.39 4.54 2 .72.27 2 .58 2.11-.44.29-2 1.64-1.48 2.78-1.52h5c.53-.09 1.14 0 1.34-.78z"/><path class="cls-4" d="M2.7 54.88a14.13 14.13 0 011.37-5.71c1.2.55 1.61 1.35.82 2.54-1.24 2.51-.34 5.22-.7 7.8s.29 4.93 2.63 6.5v.72c-1.72.41-1.79 2-1.83 3.18-.13 3.31-1.09 6.58-.62 9.92l-.57 1.43c-1.66-1-1.8-2.64-1.8-4.32"/><path class="cls-5" d="M37.25 39.71c-1.06 2-1.67 2.07-3 .2a5.26 5.26 0 013-.2z"/><path class="cls-3" d="M114.14 65.81l-.46.89a5.32 5.32 0 00-1.17 3.44c-.09 2.92-1.71 5.79-.33 8.75 0 1-1.22 1.37-1.11 2.39-1.61-.9-1.84-2.46-1.8-4 .22-7.76.45-15.52.77-23.28a8 8 0 011.14-4.21c1.81.51 1.65 1.66 1 3-1.13 2.34-.28 4.84-.62 7.23a5.42 5.42 0 002.58 5.79zm-1.51 16.33c.88-.71 1.92-.41 2.89-.41h30.41a64.82 64.82 0 008.92-.3c-.84 1.2-2.14 1.15-3.36 1.15h-37a2.64 2.64 0 01-1.86-.44zm41.02-25.33c-.14-3.07-.4-6.14.9-9.07a10.64 10.64 0 011.33 4.95c.32 5 .3 10 .42 15-1.07-.52-.63-1.52-.73-2.34s.27-1.94-.56-2.72c-.56-1.88.42-4.17-1.36-5.82z"/><path class="cls-5" d="M155 62.68c.83.78.45 1.8.56 2.72s-.34 1.82.73 2.34q.12 4.49.26 9a1.28 1.28 0 000 2l-.39 1.06a71 71 0 01-1.61-9.06c-.17-1.63.37-3.74-2-4.48l-.48-.34c1.19-.92 2.56-1.62 2.93-3.24z"/><path class="cls-3" d="M152.55 66.21c2.34.74 1.8 2.85 2 4.48a71 71 0 001.61 9.06c0 .71-.34 1-1 1a3.84 3.84 0 01-1.48-2.75c.17-4-1.53-7.79-1.13-11.79zm1.78-19.92c-.58-.21-.92-.49-.29-1a.83.83 0 01.29 1z"/><path class="cls-2" d="M100.63 27.25l-1.72 1.54a.42.42 0 00-.24.21 186.12 186.12 0 01-36.94.23c-3.84-2.19-4.86-4.48-4-8.81.16-.8.49-1.17 1.31-1 0 1.49.18 3 .07 4.46-.2 2.55 1.12 3.71 3.41 3.94s4.79.31 7.18.46c1 .76 2 .44 3.08.36h13.31c1.21.05 2.46.44 3.57-.39 1.72 0 3.44-.14 5.16-.13a5.11 5.11 0 004.8-2.36h1z"/><path class="cls-1" d="M72.34 18.77c-3.38-.7-3.78 1.07-3.46 3.49a14.6 14.6 0 010 1.75c0 .68-.32 1.16-1 1.19-.87 0-1.11-.56-1.09-1.33s-.05-1.66 0-2.49c.11-1.66 0-3-2.29-2.68-1 .16-1.14-.44-.75-1.23a2.88 2.88 0 01.32-.39c3.47-5.08 5.01-4.84 8.27 1.69z"/><path class="cls-2" d="M100.63 25.78h-1c.42-1.48-.67-3.22.78-4.53.09 1.51.17 3 .25 4.54z"/><path class="cls-2" d="M100.65 25.76c-.08-1.52-.16-3-.25-4.54v-2.44c1.33 2.28 1.03 4.62.25 6.98zM60.74 65.92c-2.45-1.2-3.36-3.17-3.1-5.85.15-1.62.06-3.27.09-4.92 0-.82 0-1.69 1-2 .13 2.74.34 5.47.38 8.2 0 2.24 1.32 3.12 3.25 3.34a159.23 159.23 0 0034.3 0 3.55 3.55 0 003.16-2.42c1.42-1.77.61-3.78.58-5.7l.12-3.4c1.69 3.9.74 10.22-1.9 12.58l-.86.13c-.61-.14-1.2-.19-1.61.41-11.1 1.17-22.21.64-33.32.28-.25-.49-.59-.79-1.18-.58z"/><path class="cls-1" d="M72 57.63c-1.24 1.45-2.59 3.13-4.07 4.67-.3.31-.84-.32-1.15-.71-.67-.84-1.33-1.69-2-2.52-1-1.28-2.57-2.7.81-2.57 1 0 1.2-.64 1.18-1.47v-3.74c0-.65.15-1.17.91-1.22s1.19.42 1.18 1.21v1.75c0 1.73-.59 3.91 2.48 3.54.49-.06.79.26.66 1.06z"/><path class="cls-3" d="M100.41 56.62c0 1.92.84 3.93-.58 5.7.06-1.91-.83-3.93.58-5.7zM57.72 80.18c-.21-4 .79-7.81 1.19-11.72.07-.75.24-1.71 1.38-1.74v1a.91.91 0 00-.39 1.08c0 1.3-.09 2.61-.13 3.91a1 1 0 00-.44 1.07c0 1.41-.1 2.82-.12 4.23-.01 1.06-.16 1.99-1.49 2.17z"/><path class="cls-2" d="M99.17 66.71c1.62 1.74 1.88 4.91.53 6.44l-.12-3.89a1.36 1.36 0 00-.47-1.55zm1.05-28.59c-.33.17-.67-1.17-1-1a28.5 28.5 0 00-.37-7.22l1.28-.12c.87 1.58-.19 6.7.09 8.34z"/><path class="cls-2" d="M100.13 29.78l-1.28.12-.18-.9a.42.42 0 01.24-.21c.66.02 1.15.21 1.22.99zM6.82 66c-2.34-1.57-3-3.81-2.63-6.5s-.54-5.29.7-7.8a84.84 84.84 0 00.35 9.7c.25 1.93 1.27 3.13 3.16 3.27 5.95.43 11.88 1.41 17.88.82h7a3.52 3.52 0 002.51-.22l2.49-.43c1.57 0 3.16 0 4.72-.11s3.1-.8 3.27-2.75c.09-1.07 0-2.15 0-3.23 0-2.42.07-4.85.11-7.27 1.59 1.24.76 3.16 1.27 4.71a13.86 13.86 0 01.1 3c.44 5.57-1.21 7.13-7.09 7.45-9.95.55-19.93.36-29.89 0A29.45 29.45 0 016.82 66z"/><path class="cls-5" d="M46.25 58.72c0 1.08.09 2.16 0 3.23-.17 1.95-1.6 2.6-3.27 2.75s-3.15.08-4.72.11c-.32-1.58 1.1-2.64 1.22-4.12a1.15 1.15 0 011.36-.81c2.16.9 3.71-.29 5.41-1.16zm-10.48 6.52a3.52 3.52 0 01-2.51.22c.74-1.16 1.61-.92 2.51-.22z"/><path class="cls-3" d="M48.28 79.74c-1.19 0-1.47-.83-1.58-1.82-.38-3.35-.78-6.69-1.18-10-.05-.41-.19-.9.34-1 .69-.17.81.41.87.9q.78 6 1.55 12zm-43.95.09c-.47-3.34.49-6.61.62-9.92 0-1.15.11-2.77 1.83-3.18-1 3.4-.73 7-1.46 10.39a4.78 4.78 0 01-.99 2.71z"/><path class="cls-1" d="M25.2 59.55c-.16.78-.81.69-1.37.7h-5c-1.14 0-2.49-.47-2.78 1.52-.15 1-1.39.71-2.11.44-1.54-.57-3-1.32-4.54-2-.39-.17-.82-.32-.83-.79 0-.65.57-.69 1-.87 1.3-.52 2.59-1.07 3.89-1.6s2.65-1.74 2.82 1c0 .81 1 .65 1.67.66h6c.59.09 1.24.06 1.25.94z"/><path class="cls-2" d="M155 62.68c-.38 1.62-1.75 2.32-2.94 3.19h-1c-.78-.25-1.15.25-1.49.82-9.83.22-19.67.79-29.5 0-1.32-.11-2.63-.28-3.94-.43a.93.93 0 00-1.12-.33l-.86-.13a5.42 5.42 0 01-2.6-5.8c.34-2.39-.51-4.89.62-7.23l.18 7.39a2.11 2.11 0 00.26 2.11 3.65 3.65 0 003.37 2.5 159.13 159.13 0 0034.22 0c2.18-.24 3.54-1.23 3.4-3.68-.08-1.41 0-2.82.05-4.23 1.78 1.6.8 3.89 1.35 5.82z"/><path class="cls-1" d="M120.18 58.68h3.23c.85 0 1.45-.16 1.48-1.18 0-1.44.86-1.35 1.87-.91q2.51 1.06 5 2.08c.4.16.81.29.78.8s-.42.63-.83.79c-1.38.54-2.76 1.09-4.13 1.68s-2.65 1.58-2.86-1c-.08-.88-1.05-.62-1.66-.63h-5.72c-.55 0-1.29.14-1.35-.7-.07-1 .8-.84 1.42-.86.95-.09 1.86-.07 2.77-.07z"/><path class="cls-3" d="M112.61 62.22a2.11 2.11 0 01-.26-2.11 1.25 1.25 0 01.26 2.11z"/><path class="cls-2" d="M112.18 78.89c-1.38-3 .24-5.83.33-8.75a5.32 5.32 0 011.17-3.44c0 1 0 2-.07 3-.66.54-.51 1.28-.49 2-.07 1.46-.13 2.93-.2 4.39-1 .49-.79 1.36-.65 2.2z"/><path class="cls-5" d="M149.56 66.71c.34-.57.71-1.07 1.49-.82-.19.83-.84.82-1.49.82z"/></g></g></svg>