<svg height="512" viewBox="0 0 511.962 511.962" width="512" xmlns="http://www.w3.org/2000/svg"><path d="M85.17 180.05H75c-41.355 0-75-33.645-75-75 0-8.284 6.716-15 15-15h61.07a15 15 0 0114.844 17.153A89.993 89.993 0 0090 120.05c0 13.494 2.928 26.457 8.702 38.527A15.001 15.001 0 0185.17 180.05z" fill="#ff9100"/><path d="M511.96 291.78c-.25-58.7-23.57-102.96-54.26-102.96-14.18 0-29.47 8.39-48.82 19.02-23.68 13.01-53.15 29.19-82.94 29.19-30.12 0-55.41-15.25-65.99-27.77C285.24 186.6 300 154.14 300 120.05c0-1-.01-2.04-.04-3.09-.92-36.1-17.86-68.29-43.96-89.7-20.71-17-47.19-27.21-76-27.21-29.06 0-57.1 10.52-78.95 29.63-21.64 18.91-35.78 44.93-39.82 73.22-.82 5.61-1.23 11.38-1.23 17.15 0 18.01 3.92 35.33 11.63 51.46 3.63 7.6 8.03 14.77 13.14 21.42-23.23 19.86-39.85 44.91-49.48 74.68-5.89 18.17-8.86 37.4-8.84 57.17v.45c0 45.39 17.98 87.22 52 120.95 17.943 17.792 76.743 68.773 177.55 65.59 44.21-1.23 83.73-8.46 117.59-21.51 32.82-12.64 60.6-30.82 82.57-54.01 48.86-51.611 55.93-112.67 55.8-144.47z" fill="#fed843"/><circle cx="135" cy="105.046" fill="#596c76" r="15"/><path d="M346.61 366.58l-13.07-6.53 13.07-6.54c3.61-1.8 6.34-4.99 7.58-8.83 1.23-3.85.86-8.03-1.02-11.6-15.31-28.96-53.39-47.74-97.17-48.03h-1c-26.97 0-52.52 7.13-71.96 20.09-21.31 14.2-33.04 33.7-33.04 54.91 0 21.2 11.73 40.7 33.04 54.9 19.44 12.96 44.99 20.1 71.96 20.1h1c43.78-.29 81.86-19.08 97.17-48.04a15.04 15.04 0 001.02-11.59 15.038 15.038 0 00-7.58-8.84z" fill="#fabe2c"/><path d="M456.16 436.25c-21.97 23.19-49.75 41.37-82.57 54.01-33.86 13.05-73.38 20.28-117.59 21.51V27.26c26.1 21.41 43.04 53.6 43.96 89.7.03 1.05.04 2.09.04 3.09 0 34.09-14.76 66.55-40.05 89.21 10.58 12.52 35.87 27.77 65.99 27.77 29.79 0 59.26-16.18 82.94-29.19 19.35-10.63 34.64-19.02 48.82-19.02 30.69 0 54.01 44.26 54.26 102.96.13 31.8-6.94 92.859-55.8 144.47z" fill="#fabe2c"/><path d="M354.19 375.42c1.23 3.84.86 8.02-1.02 11.59-15.31 28.96-53.39 47.75-97.17 48.04v-150c43.78.29 81.86 19.07 97.17 48.03a15.06 15.06 0 011.02 11.6 15.022 15.022 0 01-7.58 8.83l-13.07 6.54 13.07 6.53a15.038 15.038 0 017.58 8.84z" fill="#ff9100"/></svg>