<svg version="1.1" id="Layer_1" xmlns="http://www.w3.org/2000/svg" x="0" y="0" viewBox="0 0 105.2 51.8" xml:space="preserve"><style>.st0{fill:#425366}.st1{fill:#afb9c3}.st2{fill:#fafbfb}.st4{fill:#d3dce0}</style><path class="st0" d="M2.1 46.2C.5 44.1-.2 41.5.1 39c.2-4.1.5-8.1.3-12.2C.1 19 1.8 11.6 3.6 4.2c.5-2.7 3-4.4 5.7-4.1 11 1 22.1 1 33.1 0 3-.3 4.9 1.5 5.8 4.3 3.7 12.1 2.8 24.5 3.3 36.8 0 1.2-.3 2.3-.8 3.4-2.4 2.9-5.5 3.2-9.1 3.2-11-.2-22-.1-33.1 0-2.3.1-4.5-.5-6.4-1.6zm2-33.9C3.2 14 2.8 16 2.8 18c-.3 7.3-.5 14.7-.7 22 0 1.7.1 3.3 1.8 4.3.8 1.2 2.1 1.1 3.4 1.2h36.8c3.1 0 3.5-.3 4.3-2.7.7.2.9-.4.9-.8.1-1.2.1-2.5.1-3.7-.6-10.7.3-21.6-2.8-32.1-1-3.4-1.6-4.2-5.1-3.9-.9.1-1.8.3-2.7.4-.5-.2-1-.1-1.4.2-1-.2-2-.2-3 .2h-18c-2.5-.5-5-.7-7.6-.8-1.5-.2-2.7.7-3 2.1-.6 2.6-1.5 5.1-1.7 7.9zm51.3 33.6c-1.3-2.2-1.9-4.8-1.6-7.4.3-6.7.4-13.5.7-20.2.2-5.2 1.9-10.1 3.2-15.1C58.3.8 60.5-.2 63 0c11 1 22.1 1 33.1 0 3-.3 5 1.3 5.8 4.4 1.7 6.9 3.2 13.7 2.9 20.9-.1 3.6.1 7.1.2 10.7.1 3.2.5 6.3-1.1 9.2-1.7 1.7-4.1 2.6-6.5 2.5-11.7-.1-23.4-.1-35.2 0-2.4.2-4.8-.5-6.8-1.8zm47.1-3.1l.4-1.1c.4-.6.4-1.4 0-2l-.3-9c-.1-5-.1-10-.4-15 0-1.7-.5-3.4-1.3-5l-.2-1.5c.2-.4 0-.8-.3-1-1-6.3-1.1-6.5-7.4-5.9-9.5.8-19.1.8-28.6-.1-4.1-.4-4.6.1-5.3 4-.3.2-.5.6-.3 1l-.2 1.5c-.4.4-.6 1-.4 1.5l-.5 2.5c-.8 1.3-1.2 2.8-1.2 4.3-.3 7.8-.6 15.5-.8 23.3 0 1.6.2 3.2 1.8 4 .3.5.9.9 1.6.9.6.4 1.2.5 1.9.4h37c1.2 0 2.5 0 3.4-1.1l.3-.6c.5 0 .9-.4.8-1.1z"/><path class="st1" d="M2.1 46.2c1.9 1.1 4.2 1.6 6.4 1.5 11-.1 22.1-.2 33.1 0 3.5.1 6.7-.3 9.1-3.2-.1 1.5-.2 3-.4 4.4-.2 1-.9 1.8-1.9 2.2-1 .4-2.1.6-3.2.6H7.1c-1.3 0-2.5-.3-3.6-.8-2.3-.9-2.7-2.4-1.4-4.7zm53.3-.3c2 1.3 4.4 1.9 6.8 1.8 11.7-.1 23.4-.1 35.2 0 2.4.1 4.8-.7 6.5-2.5 1.1 4-.6 6.4-4.8 6.5-6.3.1-12.6 0-18.9 0H60.1c-4.2 0-5.6-1.8-4.7-5.8z"/><path class="st2" d="M25.3 22.6c0-.9-.7-.8-1.2-.9h-6c-.6 0-1.6.2-1.7-.7-.2-2.7-1.6-1.5-2.8-1s-2.6 1.1-3.9 1.6c-.5.2-1.1.2-1 .9 0 .5.4.6.8.8 1.5.6 3 1.4 4.5 2 .7.3 2 .6 2.1-.4.3-2 1.6-1.5 2.8-1.5h5c.5-.1 1.2 0 1.4-.8z"/><path d="M2.8 18c.1-2 .5-3.9 1.4-5.7 1.2.5 1.6 1.3.8 2.5-1.2 2.5-.3 5.2-.7 7.8s.3 4.9 2.6 6.5v.7c-1.7.4-1.8 2-1.8 3.2-.1 3.3-1.1 6.6-.6 9.9l-.6 1.4c-1.7-1-1.8-2.6-1.8-4.3" fill="#ebeced"/><path class="st2" d="M37.3 2.8c-1.1 2-1.7 2.1-3 .2 1-.4 2-.4 3-.2z"/><path class="st4" d="M60.5 28.9l-.5.9c-.8 1-1.2 2.2-1.2 3.4-.1 2.9-1.7 5.8-.3 8.8 0 1-1.2 1.4-1.1 2.4-1.6-.9-1.8-2.5-1.8-4 .2-7.8.4-15.5.8-23.3 0-1.5.4-2.9 1.1-4.2 1.8.5 1.7 1.7 1 3-1.1 2.3-.3 4.8-.6 7.2-.4 2.3.6 4.6 2.6 5.8zM59 45.2c.9-.7 1.9-.4 2.9-.4h30.4c3 .1 6 0 8.9-.3-.8 1.2-2.1 1.2-3.4 1.2h-37c-.6.1-1.2-.1-1.8-.5zm41-25.3c-.1-3.1-.4-6.1.9-9.1.8 1.5 1.3 3.2 1.3 5 .3 5 .3 10 .4 15-1.1-.5-.6-1.5-.7-2.3s.3-1.9-.6-2.7c-.5-2 .5-4.3-1.3-5.9z"/><path class="st2" d="M101.4 25.8c.8.8.4 1.8.6 2.7s-.3 1.8.7 2.3l.3 9c-.6.4-.6 1.2-.2 1.8l.2.2-.4 1.1c-.7-3-1.3-6-1.6-9.1-.2-1.6.4-3.7-2-4.5l-.5-.3c1.1-.9 2.5-1.6 2.9-3.2z"/><path class="st4" d="M98.9 29.3c2.3.7 1.8 2.9 2 4.5.3 3.1.9 6.1 1.6 9.1 0 .7-.3 1-1 1-.9-.7-1.4-1.7-1.5-2.8.2-4-1.5-7.8-1.1-11.8zm1.8-19.9c-.6-.2-.9-.5-.3-1 .3.2.5.6.3 1z"/><path class="st1" d="M6.9 29.1c-2.3-1.6-3-3.8-2.6-6.5s-.5-5.3.7-7.8c-.1 3.2 0 6.5.3 9.7.2 1.9 1.3 3.1 3.2 3.3 5.9.4 11.9 1.4 17.9.8h7c.8.2 1.7.2 2.5-.2l2.5-.4c1.6 0 3.2 0 4.7-.1s3.1-.8 3.3-2.8c.1-1.1 0-2.2 0-3.2 0-2.4.1-4.8.1-7.3 1.6 1.2.8 3.2 1.3 4.7.1 1 .2 2 .1 3 .4 5.6-1.2 7.1-7.1 7.4-9.9.6-19.9.4-29.9 0-1.4-.1-2.7-.3-4-.6z"/><path class="st2" d="M35.8 28.3c-.8.4-1.7.5-2.5.2.8-1.1 1.6-.9 2.5-.2z"/><path class="st4" d="M48.3 42.8c-1.2 0-1.5-.8-1.6-1.8-.4-3.3-.8-6.7-1.2-10 0-.4-.2-.9.3-1 .7-.2.8.4.9.9.6 4 1.1 8 1.6 11.9zm-43.9.1c-.5-3.3.5-6.6.6-9.9 0-1.2.1-2.8 1.8-3.2-1 3.4-.7 7-1.5 10.4 0 1-.3 1.9-.9 2.7z"/><path class="st0" d="M25.3 22.6c-.2.8-.8.7-1.4.7h-5c-1.1 0-2.5-.5-2.8 1.5-.2 1-1.4.7-2.1.4-1.5-.6-3-1.3-4.5-2-.4-.2-.8-.3-.8-.8 0-.7.6-.7 1-.9 1.3-.5 2.6-1.1 3.9-1.6s2.7-1.7 2.8 1c0 .8 1 .7 1.7.7h6c.5.2 1.1.2 1.2 1z"/><path class="st1" d="M101.4 25.8c-.4 1.6-1.8 2.3-2.9 3.2h-1c-.8-.2-1.1.2-1.5.8-9.8.2-19.7.8-29.5 0-1.3-.1-2.6-.3-3.9-.4-.2-.4-.7-.5-1.1-.3l-.9-.1c-2-1.2-3.1-3.5-2.6-5.8.3-2.4-.5-4.9.6-7.2l.2 7.4c-.3.7-.2 1.5.3 2.1.5 1.5 1.8 2.5 3.4 2.5 11.4 1.2 22.8 1.2 34.2 0 2.2-.2 3.5-1.2 3.4-3.7-.1-1.4 0-2.8.1-4.2 1.6 1.4.6 3.7 1.2 5.7z"/><path class="st0" d="M66.6 21.8h3.2c.8 0 1.4-.2 1.5-1.2 0-1.4.9-1.3 1.9-.9 1.7.7 3.3 1.4 5 2.1.4.2.8.3.8.8s-.4.6-.8.8c-1.4.5-2.8 1.1-4.1 1.7s-2.7 1.6-2.9-1c-.1-.9-1.1-.6-1.7-.6h-5.7c-.6 0-1.3.1-1.3-.7-.1-1 .8-.8 1.4-.9.8-.2 1.8-.1 2.7-.1z"/><path class="st4" d="M59 25.3c-.5-.6-.6-1.4-.3-2.1.6.3.9 1 .6 1.7 0 .1-.2.3-.3.4z"/><path class="st1" d="M58.6 42c-1.4-3 .2-5.8.3-8.8 0-1.2.4-2.5 1.2-3.4 0 1 0 2-.1 3-.7.5-.5 1.3-.5 2-.1 1.5-.1 2.9-.2 4.4-1 .5-.8 1.4-.7 2.2v.6z"/><path class="st2" d="M95.9 29.8c.3-.6.7-1.1 1.5-.8-.2.8-.8.8-1.5.8z"/></svg>