# Blender v2.92.0 OBJ File: 'newTarget.blend'
# www.blender.org
mtllib newTarget.mtl
o Wall
v 1.000000 1.000000 0.100000
v 0.980785 0.804910 0.100000
v 0.923879 0.617317 0.100000
v 0.831469 0.444430 0.100000
v 0.707106 0.292893 0.100000
v 0.555570 0.168530 0.100000
v 0.382683 0.076121 0.100000
v 0.195090 0.019215 0.100000
v -0.000000 0.000000 0.100000
v -0.195091 0.019215 0.100000
v -0.382684 0.076121 0.100000
v -0.555571 0.168531 0.100000
v -0.707107 0.292893 0.100000
v -0.831470 0.444430 0.100000
v -0.923880 0.617317 0.100000
v -0.980786 0.804910 0.100000
v -1.000000 1.000000 0.100000
v -0.980785 1.195091 0.100000
v -0.923880 1.382684 0.100000
v -0.831470 1.555571 0.100000
v -0.707107 1.707107 0.100000
v -0.555570 1.831470 0.100000
v -0.382683 1.923880 0.100000
v -0.195090 1.980786 0.100000
v 0.000001 2.000000 0.100000
v 0.195091 1.980785 0.100000
v 0.382684 1.923879 0.100000
v 0.555571 1.831469 0.100000
v 0.707107 1.707106 0.100000
v 0.831470 1.555569 0.100000
v 0.923880 1.382682 0.100000
v 0.980785 1.195089 0.100000
v 1.000000 1.000000 -0.100000
v 0.980785 0.804910 -0.100000
v 0.923879 0.617317 -0.100000
v 0.831469 0.444430 -0.100000
v 0.707106 0.292893 -0.100000
v 0.555570 0.168530 -0.100000
v 0.382683 0.076121 -0.100000
v 0.195090 0.019215 -0.100000
v -0.000000 0.000000 -0.100000
v -0.195091 0.019215 -0.100000
v -0.382684 0.076121 -0.100000
v -0.555571 0.168531 -0.100000
v -0.707107 0.292893 -0.100000
v -0.831470 0.444430 -0.100000
v -0.923880 0.617317 -0.100000
v -0.980786 0.804910 -0.100000
v -1.000000 1.000000 -0.100000
v -0.980785 1.195091 -0.100000
v -0.923880 1.382684 -0.100000
v -0.831470 1.555571 -0.100000
v -0.707107 1.707107 -0.100000
v -0.555570 1.831470 -0.100000
v -0.382683 1.923880 -0.100000
v -0.195090 1.980786 -0.100000
v 0.000001 2.000000 -0.100000
v 0.195091 1.980785 -0.100000
v 0.382684 1.923879 -0.100000
v 0.555571 1.831469 -0.100000
v 0.707107 1.707106 -0.100000
v 0.831470 1.555569 -0.100000
v 0.923880 1.382682 -0.100000
v 0.980785 1.195089 -0.100000
vt 0.000000 0.000000
vt 0.000000 0.000000
vt 0.000000 0.000000
vt 0.000000 0.000000
vt 0.000000 0.000000
vt 0.000000 0.000000
vt 0.000000 0.000000
vt 0.000000 0.000000
vt 0.000000 0.000000
vt 0.000000 0.000000
vt 0.000000 0.000000
vt 0.000000 0.000000
vt 0.000000 0.000000
vt 0.000000 0.000000
vt 0.000000 0.000000
vt 0.000000 0.000000
vt 0.000000 0.000000
vt 0.000000 0.000000
vt 0.000000 0.000000
vt 0.000000 0.000000
vt 0.000000 0.000000
vt 0.000000 0.000000
vt 0.000000 0.000000
vt 0.000000 0.000000
vt 0.000000 0.000000
vt 0.000000 0.000000
vt 0.000000 0.000000
vt 0.000000 0.000000
vt 0.000000 0.000000
vt 0.000000 0.000000
vt 0.000000 0.000000
vt 0.000000 0.000000
vt 0.000000 0.000000
vt 0.000000 0.000000
vt 0.000000 0.000000
vt 0.000000 0.000000
vt 0.000000 0.000000
vt 0.000000 0.000000
vt 0.000000 0.000000
vt 0.000000 0.000000
vt 0.000000 0.000000
vt 0.000000 0.000000
vt 0.000000 0.000000
vt 0.000000 0.000000
vt 0.000000 0.000000
vt 0.000000 0.000000
vt 0.000000 0.000000
vt 0.000000 0.000000
vt 0.000000 0.000000
vt 0.000000 0.000000
vt 0.000000 0.000000
vt 0.000000 0.000000
vt 0.000000 0.000000
vt 0.000000 0.000000
vt 0.000000 0.000000
vt 0.000000 0.000000
vt 0.000000 0.000000
vt 0.000000 0.000000
vt 0.000000 0.000000
vt 0.000000 0.000000
vt 0.000000 0.000000
vt 0.000000 0.000000
vt 0.000000 0.000000
vt 0.000000 0.000000
vn -0.0000 0.0000 1.0000
vn 0.0000 -0.0000 -1.0000
vn -0.8819 -0.4714 0.0000
vn 0.9952 -0.0980 0.0000
vn 0.6344 0.7730 0.0000
vn -0.9569 -0.2903 0.0000
vn 0.9569 -0.2903 0.0000
vn 0.7730 0.6344 0.0000
vn -0.9952 -0.0980 0.0000
vn 0.8819 -0.4714 0.0000
vn 0.8819 0.4714 0.0000
vn -0.9952 0.0980 0.0000
vn 0.7730 -0.6344 0.0000
vn 0.9569 0.2903 0.0000
vn -0.9569 0.2903 0.0000
vn 0.6344 -0.7730 0.0000
vn 0.9952 0.0980 0.0000
vn -0.8819 0.4714 0.0000
vn 0.4714 -0.8819 0.0000
vn -0.7730 0.6344 0.0000
vn 0.2903 -0.9569 0.0000
vn -0.6344 0.7730 0.0000
vn 0.0980 -0.9952 0.0000
vn -0.4714 0.8819 0.0000
vn -0.0980 -0.9952 -0.0000
vn -0.2903 0.9569 0.0000
vn -0.2903 -0.9569 0.0000
vn -0.0980 0.9952 0.0000
vn -0.4714 -0.8819 0.0000
vn 0.0980 0.9952 0.0000
vn -0.6344 -0.7730 0.0000
vn 0.2903 0.9569 0.0000
vn -0.7730 -0.6344 0.0000
vn 0.4714 0.8819 0.0000
usemtl None
s off
f 2/1/1 1/2/1 32/3/1 31/4/1 30/5/1 29/6/1 28/7/1 27/8/1 26/9/1 25/10/1 24/11/1 23/12/1 22/13/1 21/14/1 20/15/1 19/16/1 18/17/1 17/18/1 16/19/1 15/20/1 14/21/1 13/22/1 12/23/1 11/24/1 10/25/1 9/26/1 8/27/1 7/28/1 6/29/1 5/30/1 4/31/1 3/32/1
f 34/33/2 35/34/2 36/35/2 37/36/2 38/37/2 39/38/2 40/39/2 41/40/2 42/41/2 43/42/2 44/43/2 45/44/2 46/45/2 47/46/2 48/47/2 49/48/2 50/49/2 51/50/2 52/51/2 53/52/2 54/53/2 55/54/2 56/55/2 57/56/2 58/57/2 59/58/2 60/59/2 61/60/2 62/61/2 63/62/2 64/63/2 33/64/2
f 14/21/3 15/20/3 47/46/3 46/45/3
f 1/2/4 2/1/4 34/33/4 33/64/4
f 28/7/5 29/6/5 61/60/5 60/59/5
f 15/20/6 16/19/6 48/47/6 47/46/6
f 2/1/7 3/32/7 35/34/7 34/33/7
f 29/6/8 30/5/8 62/61/8 61/60/8
f 16/19/9 17/18/9 49/48/9 48/47/9
f 3/32/10 4/31/10 36/35/10 35/34/10
f 30/5/11 31/4/11 63/62/11 62/61/11
f 17/18/12 18/17/12 50/49/12 49/48/12
f 4/31/13 5/30/13 37/36/13 36/35/13
f 31/4/14 32/3/14 64/63/14 63/62/14
f 18/17/15 19/16/15 51/50/15 50/49/15
f 5/30/16 6/29/16 38/37/16 37/36/16
f 32/3/17 1/2/17 33/64/17 64/63/17
f 19/16/18 20/15/18 52/51/18 51/50/18
f 6/29/19 7/28/19 39/38/19 38/37/19
f 20/15/20 21/14/20 53/52/20 52/51/20
f 7/28/21 8/27/21 40/39/21 39/38/21
f 21/14/22 22/13/22 54/53/22 53/52/22
f 8/27/23 9/26/23 41/40/23 40/39/23
f 22/13/24 23/12/24 55/54/24 54/53/24
f 9/26/25 10/25/25 42/41/25 41/40/25
f 23/12/26 24/11/26 56/55/26 55/54/26
f 10/25/27 11/24/27 43/42/27 42/41/27
f 24/11/28 25/10/28 57/56/28 56/55/28
f 11/24/29 12/23/29 44/43/29 43/42/29
f 25/10/30 26/9/30 58/57/30 57/56/30
f 12/23/31 13/22/31 45/44/31 44/43/31
f 26/9/32 27/8/32 59/58/32 58/57/32
f 13/22/33 14/21/33 46/45/33 45/44/33
f 27/8/34 28/7/34 60/59/34 59/58/34
o Star
v 0.000000 0.772048 0.150000
v -0.337200 0.535883 0.150000
v -0.216796 0.929559 0.150000
v -0.545602 1.177277 0.150000
v -0.133987 1.184417 0.150000
v 0.000000 1.573680 0.150000
v 0.133987 1.184417 0.150000
v 0.545602 1.177277 0.150000
v 0.216796 0.929559 0.150000
v 0.337200 0.535883 0.150000
v 0.000000 0.772048 0.092632
v -0.337200 0.535883 0.092632
v -0.216796 0.929559 0.092632
v -0.545602 1.177277 0.092632
v -0.133987 1.184417 0.092632
v 0.000000 1.573680 0.092632
v 0.133987 1.184417 0.092632
v 0.545602 1.177277 0.092632
v 0.216796 0.929559 0.092632
v 0.337200 0.535883 0.092632
vt 0.000000 0.000000
vt 0.000000 0.000000
vt 0.000000 0.000000
vt 0.000000 0.000000
vt 0.000000 0.000000
vt 0.000000 0.000000
vt 0.000000 0.000000
vt 0.000000 0.000000
vt 0.000000 0.000000
vt 0.000000 0.000000
vt 0.000000 0.000000
vt 0.000000 0.000000
vt 0.000000 0.000000
vt 0.000000 0.000000
vt 0.000000 0.000000
vt 0.000000 0.000000
vt 0.000000 0.000000
vt 0.000000 0.000000
vt 0.000000 0.000000
vt 0.000000 0.000000
vn 0.0000 -0.0000 1.0000
vn -0.0000 0.0000 -1.0000
vn -0.9456 0.3255 0.0000
vn -0.9563 0.2925 0.0000
vn 0.9563 0.2925 0.0000
vn 0.9456 0.3255 0.0000
vn -0.6017 -0.7987 -0.0000
vn -0.5737 -0.8191 0.0000
vn 0.0173 0.9998 0.0000
vn -0.0173 0.9998 0.0000
vn 0.5737 -0.8191 0.0000
vn 0.6017 -0.7987 0.0000
usemtl None
s off
f 66/65/35 65/66/35 74/67/35 73/68/35 72/69/35 71/70/35 70/71/35 69/72/35 68/73/35 67/74/35
f 76/75/36 77/76/36 78/77/36 79/78/36 80/79/36 81/80/36 82/81/36 83/82/36 84/83/36 75/84/36
f 69/72/37 70/71/37 80/79/37 79/78/37
f 66/65/38 67/74/38 77/76/38 76/75/38
f 73/68/39 74/67/39 84/83/39 83/82/39
f 70/71/40 71/70/40 81/80/40 80/79/40
f 67/74/41 68/73/41 78/77/41 77/76/41
f 74/67/42 65/66/42 75/84/42 84/83/42
f 71/70/43 72/69/43 82/81/43 81/80/43
f 68/73/44 69/72/44 79/78/44 78/77/44
f 65/66/45 66/65/45 76/75/45 75/84/45
f 72/69/46 73/68/46 83/82/46 82/81/46
