<svg xmlns="http://www.w3.org/2000/svg" viewBox="0 0 353.99 51.76"><defs><style>.cls-1{fill:#425366}.cls-2{fill:#afb9c3}.cls-3{fill:#d3dce0}</style></defs><g id="Layer_2" data-name="Layer 2"><g id="Layer_1-2" data-name="Layer 1"><path class="cls-1" d="M1.9 46.11A11 11 0 010 38.8c.25-4.48.5-9 .38-13.46-.2-7.17 1.39-14 3.11-20.89C4.28 1.41 6.06.07 9.27 0h334c5.47 0 6.31.87 7.82 6.23 3.24 11.56 2.32 23.43 2.88 35.18.06 1.4-.74 2.53-1.2 3.77a10.86 10.86 0 01-7.17 2.59q-168.3-.11-336.58 0a12.65 12.65 0 01-7.12-1.66zm348.45-1.83c1.76-1 1.64-2.74 1.6-4.38q-.27-11-.62-22.09a9.48 9.48 0 00-1.16-5l-.57-3.43c0-.55.51-1.19-.29-1.59l-.21-.91a.85.85 0 00-.32-1.09c-.26-.86-.11-1.86-.89-2.54-1.16-1.83-3-1.4-4.7-1.4H12.05a27.12 27.12 0 00-3 0C8 2 6.84 2 6.36 3.27a2.93 2.93 0 00-.8 2.07 1.4 1.4 0 00-.47 1.56l-.62 2.92a.85.85 0 00-.27 1.11l-.27 1.39a1.93 1.93 0 00-.53 1.95 20.06 20.06 0 00-.69 5.17c-.16 6.32-.32 12.64-.55 19-.2 5.85.95 7.12 6.72 7.12h336.74a8.11 8.11 0 003.21-.27 1.55 1.55 0 001.52-1.01z"/><path class="cls-2" d="M1.9 46.11A12.65 12.65 0 009 47.75q168.29-.06 336.58 0a10.86 10.86 0 007.17-2.59c.22 5.45-.84 6.56-6.34 6.56H7.44a8 8 0 01-4.75-1.15C.87 49.36.6 47.78 1.9 46.11zM347.89 3.29a11.47 11.47 0 00-4.16-.59H10.52a13.24 13.24 0 00-4.16.58C6.84 2 8 2 9.06 1.92a27.12 27.12 0 013 0h331.13c1.68-.03 3.54-.46 4.7 1.37z"/><path class="cls-1" d="M3.93 12.32c1.51 3.35 1.39 6.92 1.38 10.48 0 4.13 1 5.09 5.15 5.08q15 0 29.91-.07h4.49q25.89 0 51.78.07c1 0 2.17-.34 3.13.41l.23.65a6.88 6.88 0 01-3.42.35q-43.85 0-87.67-.07c-2 0-2.48.65-2.54 2.51-.09 2.38-.58 4.74-.9 7.11-.33-.36-.67-.71-1-1.07a29.49 29.49 0 011.16-7.54 2.09 2.09 0 00-.57-2.62 3.69 3.69 0 01-1.11-3.15C4 21.82 4 19.17 4 16.52c0-.79.29-1.69-.6-2.25a1.93 1.93 0 01.53-1.95z"/><path class="cls-3" d="M349.27 16.3c-.87-1.46-.34-2.55.9-3.45a9.48 9.48 0 011.16 5q.36 11 .62 22.09c0 1.64.16 3.37-1.6 4.38v-1.21c.28-1.33.45-2.61-1.14-3.29a6.23 6.23 0 01-.63-3.12c.39-.3 1.28 1.68 1.13-.08-.18-1.95-.26-3.95-.62-5.88-.16-.87-.64-.36-.87.15-.91-.27-.83-1-.79-1.71.44-.55 1-1 .88-1.86a1.15 1.15 0 001.41-1.06c.04-3.36.73-6.71-.45-9.96z"/><path class="cls-2" d="M349.6 9.42c-.73-.41-.87-.94-.29-1.59.8.4.29 1.04.29 1.59z"/><path class="cls-3" d="M348.83 45.24c.14-.89.77-1 1.52-1a1.55 1.55 0 01-1.52 1z"/><path class="cls-2" d="M349.1 6.92c-.53-.23-.85-.54-.32-1.09a.85.85 0 01.32 1.09z"/><path d="M100 28.94l-.23-.65H252.5l-.25.66z" stroke="#000" stroke-miterlimit="10" stroke-width=".75" fill="#425366"/><path class="cls-1" d="M252.25 29c.09-.22.17-.44.25-.66.87-.72 1.91-.41 2.87-.42 7.7 0 15.39-.05 23.09-.07H345a21.33 21.33 0 003.4-.56c.15.82-.44 1.31-.88 1.86-1.24.05-2.48.13-3.73.13h-88.27a6.32 6.32 0 01-3.27-.28z"/><path class="cls-2" d="M348.23 30.85c.23-.51.71-1 .87-.15.36 1.93.44 3.93.62 5.88.15 1.76-.74-.22-1.13.08z"/><path class="cls-1" d="M4.46 37.77c.34.36.68.71 1 1.07-.24 1.35-.48 2.71-.71 4.07a5.2 5.2 0 01-.29-5.14z"/><path class="cls-2" d="M349.22 39.78c1.59.68 1.42 2 1.14 3.29-1.84-.6-.67-2.23-1.14-3.29zm.05-23.48c1.18 3.25.49 6.6.46 9.91a1.15 1.15 0 01-1.41 1.06c1.47-3.55.68-7.27.95-10.97z"/><path d="M294.48 24.32a6.44 6.44 0 01-4.66 0 5.31 5.31 0 014.66 0zm-244.16-.05a3.18 3.18 0 01-3.43 0 3.24 3.24 0 013.43 0z" fill="#fafbfb"/></g></g></svg>