# Blender v2.92.0 OBJ File: 'target.blend'
# www.blender.org
mtllib target.mtl
o Outter_Ring_Cylinder
v 0.000000 1.500000 -0.055511
v 0.000000 1.500000 -0.006018
v 0.097545 1.490393 -0.055511
v 0.097545 1.490393 -0.006018
v 0.191342 1.461940 -0.055511
v 0.191342 1.461940 -0.006018
v 0.277785 1.415735 -0.055511
v 0.277785 1.415735 -0.006018
v 0.353553 1.353553 -0.055511
v 0.353553 1.353553 -0.006018
v 0.415735 1.277785 -0.055511
v 0.415735 1.277785 -0.006018
v 0.461940 1.191342 -0.055511
v 0.461940 1.191342 -0.006018
v 0.490393 1.097545 -0.055511
v 0.490393 1.097545 -0.006018
v 0.500000 1.000000 -0.055511
v 0.500000 1.000000 -0.006018
v 0.490393 0.902455 -0.055511
v 0.490393 0.902455 -0.006018
v 0.461940 0.808658 -0.055511
v 0.461940 0.808658 -0.006018
v 0.415735 0.722215 -0.055511
v 0.415735 0.722215 -0.006018
v 0.353553 0.646447 -0.055511
v 0.353553 0.646447 -0.006018
v 0.277785 0.584265 -0.055511
v 0.277785 0.584265 -0.006018
v 0.191342 0.538060 -0.055511
v 0.191342 0.538060 -0.006018
v 0.097545 0.509607 -0.055511
v 0.097545 0.509607 -0.006018
v -0.000000 0.500000 -0.055511
v -0.000000 0.500000 -0.006018
v -0.097545 0.509607 -0.055511
v -0.097545 0.509607 -0.006018
v -0.191342 0.538060 -0.055511
v -0.191342 0.538060 -0.006018
v -0.277785 0.584265 -0.055511
v -0.277785 0.584265 -0.006018
v -0.353554 0.646447 -0.055511
v -0.353554 0.646447 -0.006018
v -0.415735 0.722215 -0.055511
v -0.415735 0.722215 -0.006018
v -0.461940 0.808659 -0.055511
v -0.461940 0.808659 -0.006018
v -0.490393 0.902455 -0.055511
v -0.490393 0.902455 -0.006018
v -0.500000 1.000000 -0.055511
v -0.500000 1.000000 -0.006018
v -0.490393 1.097546 -0.055511
v -0.490393 1.097546 -0.006018
v -0.461940 1.191342 -0.055511
v -0.461940 1.191342 -0.006018
v -0.415734 1.277786 -0.055511
v -0.415734 1.277786 -0.006018
v -0.353553 1.353554 -0.055511
v -0.353553 1.353554 -0.006018
v -0.277785 1.415735 -0.055511
v -0.277785 1.415735 -0.006018
v -0.191341 1.461940 -0.055511
v -0.191341 1.461940 -0.006018
v -0.097544 1.490393 -0.055511
v -0.097544 1.490393 -0.006018
v 0.000000 1.400000 -0.055511
v -0.392314 1.078037 -0.055511
v 0.000000 1.400000 -0.006018
v -0.392314 1.078037 -0.006018
v -0.369552 1.153074 -0.055511
v -0.369552 1.153074 -0.006018
v 0.078036 1.392314 -0.055511
v 0.078036 1.392314 -0.006018
v 0.153073 1.369552 -0.055511
v 0.153073 1.369552 -0.006018
v -0.332588 1.222229 -0.055511
v -0.332588 1.222229 -0.006018
v 0.222228 1.332588 -0.055511
v 0.222228 1.332588 -0.006018
v -0.282842 1.282843 -0.055511
v -0.282842 1.282843 -0.006018
v 0.282843 1.282843 -0.055511
v 0.282843 1.282843 -0.006018
v -0.222228 1.332588 -0.055511
v -0.222228 1.332588 -0.006018
v 0.332588 1.222228 -0.055511
v 0.332588 1.222228 -0.006018
v -0.153073 1.369552 -0.055511
v -0.153073 1.369552 -0.006018
v 0.369552 1.153073 -0.055511
v 0.369552 1.153073 -0.006018
v -0.078036 1.392314 -0.055511
v -0.078036 1.392314 -0.006018
v 0.392314 1.078036 -0.055511
v 0.392314 1.078036 -0.006018
v 0.400000 1.000000 -0.055511
v 0.400000 1.000000 -0.006018
v 0.392314 0.921964 -0.055511
v 0.392314 0.921964 -0.006018
v 0.369552 0.846927 -0.055511
v 0.369552 0.846927 -0.006018
v 0.078036 0.607686 -0.006018
v -0.000000 0.600000 -0.006018
v 0.153073 0.630448 -0.006018
v 0.282843 0.717157 -0.006018
v 0.222228 0.667412 -0.006018
v 0.332588 0.777772 -0.055511
v 0.332588 0.777772 -0.006018
v 0.282843 0.717157 -0.055511
v 0.222228 0.667412 -0.055511
v -0.400000 1.000000 -0.006018
v -0.392314 0.921964 -0.006018
v -0.369552 0.846927 -0.006018
v -0.282843 0.717157 -0.006018
v -0.332588 0.777772 -0.006018
v 0.153073 0.630448 -0.055511
v 0.078036 0.607686 -0.055511
v -0.000000 0.600000 -0.055511
v -0.078036 0.607686 -0.055511
v -0.078036 0.607686 -0.006018
v -0.222228 0.667412 -0.006018
v -0.153074 0.630448 -0.006018
v -0.153074 0.630448 -0.055511
v -0.222228 0.667412 -0.055511
v -0.332588 0.777772 -0.055511
v -0.282843 0.717157 -0.055511
v -0.369552 0.846927 -0.055511
v -0.392314 0.921964 -0.055511
v -0.400000 1.000000 -0.055511
vt 1.000000 0.500000
vt 1.000000 1.000000
vt 0.968750 1.000000
vt 0.968750 0.500000
vt 0.937500 1.000000
vt 0.937500 0.500000
vt 0.906250 1.000000
vt 0.906250 0.500000
vt 0.875000 1.000000
vt 0.875000 0.500000
vt 0.843750 1.000000
vt 0.843750 0.500000
vt 0.812500 1.000000
vt 0.812500 0.500000
vt 0.781250 1.000000
vt 0.781250 0.500000
vt 0.750000 1.000000
vt 0.750000 0.500000
vt 0.718750 1.000000
vt 0.718750 0.500000
vt 0.687500 1.000000
vt 0.687500 0.500000
vt 0.656250 1.000000
vt 0.656250 0.500000
vt 0.625000 1.000000
vt 0.625000 0.500000
vt 0.593750 1.000000
vt 0.593750 0.500000
vt 0.562500 1.000000
vt 0.562500 0.500000
vt 0.531250 1.000000
vt 0.531250 0.500000
vt 0.500000 1.000000
vt 0.500000 0.500000
vt 0.468750 1.000000
vt 0.468750 0.500000
vt 0.437500 1.000000
vt 0.437500 0.500000
vt 0.406250 1.000000
vt 0.406250 0.500000
vt 0.375000 1.000000
vt 0.375000 0.500000
vt 0.343750 1.000000
vt 0.343750 0.500000
vt 0.312500 1.000000
vt 0.312500 0.500000
vt 0.281250 1.000000
vt 0.281250 0.500000
vt 0.250000 1.000000
vt 0.250000 0.500000
vt 0.218750 1.000000
vt 0.218750 0.500000
vt 0.187500 1.000000
vt 0.187500 0.500000
vt 0.156250 1.000000
vt 0.156250 0.500000
vt 0.125000 1.000000
vt 0.125000 0.500000
vt 0.093750 1.000000
vt 0.093750 0.500000
vt 0.062500 1.000000
vt 0.062500 0.500000
vt 0.031250 1.000000
vt 0.031250 0.500000
vt 0.000000 1.000000
vt 0.000000 0.500000
vt 0.968750 0.710708
vt 0.968750 0.814679
vt 1.000000 0.814679
vt 1.000000 0.710708
vt 0.937500 0.710708
vt 0.937500 0.814679
vt 0.906250 0.710708
vt 0.906250 0.814679
vt 0.875000 0.710708
vt 0.875000 0.814679
vt 0.843750 0.710708
vt 0.843750 0.814679
vt 0.812500 0.710708
vt 0.812500 0.814679
vt 0.781250 0.710708
vt 0.781250 0.814679
vt 0.750000 0.710708
vt 0.750000 0.814679
vt 0.718750 0.710708
vt 0.718750 0.814679
vt 0.687500 0.814679
vt 0.687500 0.710708
vt 0.656250 0.710708
vt 0.656250 0.814679
vt 0.625000 0.814679
vt 0.625000 0.710708
vt 0.593750 0.814679
vt 0.593750 0.710708
vt 0.562500 0.814679
vt 0.562500 0.710708
vt 0.531250 0.814679
vt 0.531250 0.710708
vt 0.500000 0.814679
vt 0.500000 0.710708
vt 0.468750 0.710708
vt 0.468750 0.814679
vt 0.437500 0.710708
vt 0.437500 0.814679
vt 0.406250 0.814679
vt 0.406250 0.710708
vt 0.375000 0.814679
vt 0.375000 0.710708
vt 0.343750 0.710708
vt 0.343750 0.814679
vt 0.312500 0.710708
vt 0.312500 0.814679
vt 0.281250 0.710708
vt 0.281250 0.814679
vt 0.250000 0.710708
vt 0.250000 0.814679
vt 0.218750 0.710708
vt 0.218750 0.814679
vt 0.187500 0.710708
vt 0.187500 0.814679
vt 0.156250 0.710708
vt 0.156250 0.814679
vt 0.125000 0.710708
vt 0.125000 0.814679
vt 0.093750 0.710708
vt 0.093750 0.814679
vt 0.062500 0.710708
vt 0.062500 0.814679
vt 0.031250 0.710708
vt 0.031250 0.814679
vt 0.000000 0.710708
vt 0.000000 0.814679
vt 0.080295 0.419706
vt 0.050447 0.383337
vt 0.028269 0.341844
vt 0.014612 0.296822
vt 0.010000 0.250000
vt 0.014611 0.203179
vt 0.028269 0.158156
vt 0.050447 0.116663
vt 0.080294 0.080294
vt 0.116663 0.050447
vt 0.158156 0.028269
vt 0.203178 0.014612
vt 0.250000 0.010000
vt 0.296822 0.014612
vt 0.341844 0.028269
vt 0.383337 0.050447
vt 0.419706 0.080294
vt 0.449553 0.116663
vt 0.471731 0.158156
vt 0.485388 0.203178
vt 0.490000 0.250000
vt 0.485388 0.296822
vt 0.471731 0.341844
vt 0.449553 0.383337
vt 0.419706 0.419706
vt 0.385765 0.385765
vt 0.409642 0.356669
vt 0.427385 0.323475
vt 0.438311 0.287457
vt 0.442000 0.250000
vt 0.438311 0.212543
vt 0.427385 0.176525
vt 0.409642 0.143331
vt 0.385764 0.114235
vt 0.356669 0.090358
vt 0.323475 0.072615
vt 0.287457 0.061689
vt 0.250000 0.058000
vt 0.212543 0.061689
vt 0.176525 0.072615
vt 0.143330 0.090358
vt 0.114235 0.114236
vt 0.090358 0.143331
vt 0.072615 0.176525
vt 0.061689 0.212543
vt 0.058000 0.250000
vt 0.061689 0.287457
vt 0.072615 0.323475
vt 0.090358 0.356670
vt 0.114236 0.385765
vt 0.383337 0.449553
vt 0.341844 0.471731
vt 0.296822 0.485388
vt 0.250000 0.490000
vt 0.203179 0.485389
vt 0.158156 0.471731
vt 0.116663 0.449553
vt 0.143331 0.409642
vt 0.176525 0.427385
vt 0.212543 0.438311
vt 0.250000 0.442000
vt 0.287457 0.438311
vt 0.323475 0.427385
vt 0.356669 0.409642
vt 0.561689 0.287458
vt 0.514612 0.296822
vt 0.528269 0.341844
vt 0.550447 0.383337
vt 0.580295 0.419706
vt 0.616663 0.449553
vt 0.658156 0.471731
vt 0.703179 0.485389
vt 0.750000 0.490000
vt 0.796822 0.485388
vt 0.841844 0.471731
vt 0.883337 0.449553
vt 0.919706 0.419706
vt 0.949553 0.383337
vt 0.971731 0.341844
vt 0.985388 0.296822
vt 0.990000 0.250000
vt 0.985388 0.203178
vt 0.971731 0.158156
vt 0.949553 0.116663
vt 0.919706 0.080294
vt 0.883337 0.050447
vt 0.841844 0.028269
vt 0.796822 0.014612
vt 0.787457 0.061689
vt 0.823475 0.072615
vt 0.856669 0.090358
vt 0.885764 0.114235
vt 0.909642 0.143330
vt 0.927385 0.176525
vt 0.938311 0.212543
vt 0.942000 0.250000
vt 0.938311 0.287457
vt 0.927385 0.323475
vt 0.909642 0.356669
vt 0.885764 0.385764
vt 0.856669 0.409642
vt 0.823475 0.427385
vt 0.787457 0.438311
vt 0.750000 0.442000
vt 0.712543 0.438311
vt 0.676525 0.427385
vt 0.643331 0.409642
vt 0.614236 0.385765
vt 0.590358 0.356670
vt 0.572615 0.323475
vt 0.750000 0.010000
vt 0.703178 0.014612
vt 0.658156 0.028269
vt 0.616663 0.050447
vt 0.580294 0.080294
vt 0.550447 0.116663
vt 0.528269 0.158156
vt 0.514611 0.203179
vt 0.510000 0.250000
vt 0.558000 0.250000
vt 0.561689 0.212543
vt 0.572615 0.176525
vt 0.590358 0.143331
vt 0.614235 0.114236
vt 0.643330 0.090358
vt 0.676525 0.072615
vt 0.712542 0.061689
vt 0.750000 0.058000
vn 0.0980 0.9952 0.0000
vn 0.2903 0.9569 0.0000
vn 0.4714 0.8819 0.0000
vn 0.6344 0.7730 0.0000
vn 0.7730 0.6344 0.0000
vn 0.8819 0.4714 0.0000
vn 0.9569 0.2903 0.0000
vn 0.9952 0.0980 0.0000
vn 0.9952 -0.0980 0.0000
vn 0.9569 -0.2903 0.0000
vn 0.8819 -0.4714 0.0000
vn 0.7730 -0.6344 0.0000
vn 0.6344 -0.7730 0.0000
vn 0.4714 -0.8819 0.0000
vn 0.2903 -0.9569 0.0000
vn 0.0980 -0.9952 0.0000
vn -0.0980 -0.9952 0.0000
vn -0.2903 -0.9569 0.0000
vn -0.4714 -0.8819 0.0000
vn -0.6344 -0.7730 0.0000
vn -0.7730 -0.6344 0.0000
vn -0.8819 -0.4714 0.0000
vn -0.9569 -0.2903 0.0000
vn -0.9952 -0.0980 0.0000
vn -0.9952 0.0980 0.0000
vn -0.9569 0.2903 0.0000
vn -0.8819 0.4714 0.0000
vn -0.7730 0.6344 0.0000
vn -0.6344 0.7730 0.0000
vn -0.4714 0.8819 0.0000
vn -0.2903 0.9569 0.0000
vn -0.0980 0.9952 0.0000
vn 0.0000 0.0000 1.0000
vn -0.0000 -0.0000 -1.0000
usemtl Material.002
s off
f 1/1/1 2/2/1 4/3/1 3/4/1
f 3/4/2 4/3/2 6/5/2 5/6/2
f 5/6/3 6/5/3 8/7/3 7/8/3
f 7/8/4 8/7/4 10/9/4 9/10/4
f 9/10/5 10/9/5 12/11/5 11/12/5
f 11/12/6 12/11/6 14/13/6 13/14/6
f 13/14/7 14/13/7 16/15/7 15/16/7
f 15/16/8 16/15/8 18/17/8 17/18/8
f 17/18/9 18/17/9 20/19/9 19/20/9
f 19/20/10 20/19/10 22/21/10 21/22/10
f 21/22/11 22/21/11 24/23/11 23/24/11
f 23/24/12 24/23/12 26/25/12 25/26/12
f 25/26/13 26/25/13 28/27/13 27/28/13
f 27/28/14 28/27/14 30/29/14 29/30/14
f 29/30/15 30/29/15 32/31/15 31/32/15
f 31/32/16 32/31/16 34/33/16 33/34/16
f 33/34/17 34/33/17 36/35/17 35/36/17
f 35/36/18 36/35/18 38/37/18 37/38/18
f 37/38/19 38/37/19 40/39/19 39/40/19
f 39/40/20 40/39/20 42/41/20 41/42/20
f 41/42/21 42/41/21 44/43/21 43/44/21
f 43/44/22 44/43/22 46/45/22 45/46/22
f 45/46/23 46/45/23 48/47/23 47/48/23
f 47/48/24 48/47/24 50/49/24 49/50/24
f 49/50/25 50/49/25 52/51/25 51/52/25
f 51/52/26 52/51/26 54/53/26 53/54/26
f 53/54/27 54/53/27 56/55/27 55/56/27
f 55/56/28 56/55/28 58/57/28 57/58/28
f 57/58/29 58/57/29 60/59/29 59/60/29
f 59/60/30 60/59/30 62/61/30 61/62/30
f 61/62/31 62/61/31 64/63/31 63/64/31
f 63/64/32 64/63/32 2/65/32 1/66/32
f 71/67/17 72/68/17 67/69/17 65/70/17
f 72/68/18 71/67/18 73/71/18 74/72/18
f 74/72/19 73/71/19 77/73/19 78/74/19
f 78/74/20 77/73/20 81/75/20 82/76/20
f 81/75/21 85/77/21 86/78/21 82/76/21
f 85/77/22 89/79/22 90/80/22 86/78/22
f 89/79/23 93/81/23 94/82/23 90/80/23
f 93/81/24 95/83/24 96/84/24 94/82/24
f 95/83/25 97/85/25 98/86/25 96/84/25
f 100/87/26 98/86/26 97/85/26 99/88/26
f 99/88/27 106/89/27 107/90/27 100/87/27
f 104/91/28 107/90/28 106/89/28 108/92/28
f 105/93/29 104/91/29 108/92/29 109/94/29
f 103/95/30 105/93/30 109/94/30 115/96/30
f 101/97/31 103/95/31 115/96/31 116/98/31
f 102/99/32 101/97/32 116/98/32 117/100/32
f 118/101/1 119/102/1 102/99/1 117/100/1
f 122/103/2 121/104/2 119/102/2 118/101/2
f 120/105/3 121/104/3 122/103/3 123/106/3
f 113/107/4 120/105/4 123/106/4 125/108/4
f 124/109/5 114/110/5 113/107/5 125/108/5
f 126/111/6 112/112/6 114/110/6 124/109/6
f 127/113/7 111/114/7 112/112/7 126/111/7
f 128/115/8 110/116/8 111/114/8 127/113/8
f 66/117/9 68/118/9 110/116/9 128/115/9
f 68/118/10 66/117/10 69/119/10 70/120/10
f 70/120/11 69/119/11 75/121/11 76/122/11
f 76/122/12 75/121/12 79/123/12 80/124/12
f 80/124/13 79/123/13 83/125/13 84/126/13
f 84/126/14 83/125/14 87/127/14 88/128/14
f 88/128/15 87/127/15 91/129/15 92/130/15
f 92/130/16 91/129/16 65/131/16 67/132/16
f 58/133/33 56/134/33 54/135/33 52/136/33 50/137/33 48/138/33 46/139/33 44/140/33 42/141/33 40/142/33 38/143/33 36/144/33 34/145/33 32/146/33 30/147/33 28/148/33 26/149/33 24/150/33 22/151/33 20/152/33 18/153/33 16/154/33 14/155/33 12/156/33 10/157/33 82/158/33 86/159/33 90/160/33 94/161/33 96/162/33 98/163/33 100/164/33 107/165/33 104/166/33 105/167/33 103/168/33 101/169/33 102/170/33 119/171/33 121/172/33 120/173/33 113/174/33 114/175/33 112/176/33 111/177/33 110/178/33 68/179/33 70/180/33 76/181/33 80/182/33
f 82/158/33 10/157/33 8/183/33 6/184/33 4/185/33 2/186/33 64/187/33 62/188/33 60/189/33 58/133/33 80/182/33 84/190/33 88/191/33 92/192/33 67/193/33 72/194/33 74/195/33 78/196/33
f 66/197/34 51/198/34 53/199/34 55/200/34 57/201/34 59/202/34 61/203/34 63/204/34 1/205/34 3/206/34 5/207/34 7/208/34 9/209/34 11/210/34 13/211/34 15/212/34 17/213/34 19/214/34 21/215/34 23/216/34 25/217/34 27/218/34 29/219/34 31/220/34 116/221/34 115/222/34 109/223/34 108/224/34 106/225/34 99/226/34 97/227/34 95/228/34 93/229/34 89/230/34 85/231/34 81/232/34 77/233/34 73/234/34 71/235/34 65/236/34 91/237/34 87/238/34 83/239/34 79/240/34 75/241/34 69/242/34
f 116/221/34 31/220/34 33/243/34 35/244/34 37/245/34 39/246/34 41/247/34 43/248/34 45/249/34 47/250/34 49/251/34 51/198/34 66/197/34 128/252/34 127/253/34 126/254/34 124/255/34 125/256/34 123/257/34 122/258/34 118/259/34 117/260/34
o Wall_Circle.001
v 0.000000 2.000000 -0.050000
v -0.195090 1.980785 -0.050000
v -0.382683 1.923880 -0.050000
v -0.555570 1.831470 -0.050000
v -0.707107 1.707107 -0.050000
v -0.831470 1.555570 -0.050000
v -0.923880 1.382683 -0.050000
v -0.980785 1.195090 -0.050000
v -1.000000 1.000000 -0.050000
v -0.980785 0.804910 -0.050000
v -0.923880 0.617317 -0.050000
v -0.831470 0.444430 -0.050000
v -0.707107 0.292893 -0.050000
v -0.555570 0.168530 -0.050000
v -0.382683 0.076120 -0.050000
v -0.195090 0.019215 -0.050000
v 0.000000 0.000000 -0.050000
v 0.195091 0.019215 -0.050000
v 0.382684 0.076121 -0.050000
v 0.555571 0.168531 -0.050000
v 0.707107 0.292894 -0.050000
v 0.831470 0.444430 -0.050000
v 0.923880 0.617317 -0.050000
v 0.980785 0.804911 -0.050000
v 1.000000 1.000001 -0.050000
v 0.980785 1.195091 -0.050000
v 0.923879 1.382684 -0.050000
v 0.831469 1.555571 -0.050000
v 0.707106 1.707108 -0.050000
v 0.555569 1.831470 -0.050000
v 0.382682 1.923880 -0.050000
v 0.195089 1.980786 -0.050000
v 0.000000 2.000000 -0.150000
v -0.195090 1.980785 -0.150000
v -0.382683 1.923879 -0.150000
v -0.555570 1.831470 -0.150000
v -0.707107 1.707107 -0.150000
v -0.831470 1.555570 -0.150000
v -0.923880 1.382683 -0.150000
v -0.980785 1.195090 -0.150000
v -1.000000 1.000000 -0.150000
v -0.980785 0.804910 -0.150000
v -0.923880 0.617317 -0.150000
v -0.831470 0.444430 -0.150000
v -0.707107 0.292893 -0.150000
v -0.555570 0.168530 -0.150000
v -0.382683 0.076120 -0.150000
v -0.195090 0.019215 -0.150000
v 0.000000 0.000000 -0.150000
v 0.195091 0.019215 -0.150000
v 0.382684 0.076121 -0.150000
v 0.555571 0.168531 -0.150000
v 0.707107 0.292894 -0.150000
v 0.831470 0.444430 -0.150000
v 0.923880 0.617317 -0.150000
v 0.980785 0.804910 -0.150000
v 1.000000 1.000001 -0.150000
v 0.980785 1.195091 -0.150000
v 0.923879 1.382684 -0.150000
v 0.831469 1.555571 -0.150000
v 0.707106 1.707108 -0.150000
v 0.555569 1.831470 -0.150000
v 0.382682 1.923880 -0.150000
v 0.195089 1.980785 -0.150000
vt 0.000000 0.000000
vt 0.000000 0.000000
vt 0.000000 0.000000
vt 0.000000 0.000000
vt 0.000000 0.000000
vt 0.000000 0.000000
vt 0.000000 0.000000
vt 0.000000 0.000000
vt 0.000000 0.000000
vt 0.000000 0.000000
vt 0.000000 0.000000
vt 0.000000 0.000000
vt 0.000000 0.000000
vt 0.000000 0.000000
vt 0.000000 0.000000
vt 0.000000 0.000000
vt 0.000000 0.000000
vt 0.000000 0.000000
vt 0.000000 0.000000
vt 0.000000 0.000000
vt 0.000000 0.000000
vt 0.000000 0.000000
vt 0.000000 0.000000
vt 0.000000 0.000000
vt 0.000000 0.000000
vt 0.000000 0.000000
vt 0.000000 0.000000
vt 0.000000 0.000000
vt 0.000000 0.000000
vt 0.000000 0.000000
vt 0.000000 0.000000
vt 0.000000 0.000000
vt 0.000000 0.000000
vt 0.000000 0.000000
vt 0.000000 0.000000
vt 0.000000 0.000000
vt 0.000000 0.000000
vt 0.000000 0.000000
vt 0.000000 0.000000
vt 0.000000 0.000000
vt 0.000000 0.000000
vt 0.000000 0.000000
vt 0.000000 0.000000
vt 0.000000 0.000000
vt 0.000000 0.000000
vt 0.000000 0.000000
vt 0.000000 0.000000
vt 0.000000 0.000000
vt 0.000000 0.000000
vt 0.000000 0.000000
vt 0.000000 0.000000
vt 0.000000 0.000000
vt 0.000000 0.000000
vt 0.000000 0.000000
vt 0.000000 0.000000
vt 0.000000 0.000000
vt 0.000000 0.000000
vt 0.000000 0.000000
vt 0.000000 0.000000
vt 0.000000 0.000000
vt 0.000000 0.000000
vt 0.000000 0.000000
vt 0.000000 0.000000
vt 0.000000 0.000000
vn -0.4714 -0.8819 0.0000
vn -0.0980 0.9952 -0.0000
vn 0.6344 -0.7730 0.0000
vn -0.2903 -0.9569 0.0000
vn -0.2903 0.9569 -0.0000
vn 0.7730 -0.6344 0.0000
vn -0.0980 -0.9952 0.0000
vn -0.4714 0.8819 -0.0000
vn 0.8819 -0.4714 0.0000
vn -0.6344 0.7730 -0.0000
vn 0.9569 -0.2903 0.0000
vn -0.7730 0.6344 -0.0000
vn 0.9952 -0.0980 0.0000
vn -0.8819 0.4714 -0.0000
vn 0.9952 0.0980 -0.0000
vn -0.9569 0.2903 0.0000
vn 0.9569 0.2903 -0.0000
vn -0.9952 0.0980 0.0000
vn 0.8819 0.4714 -0.0000
vn -0.9952 -0.0980 0.0000
vn 0.7730 0.6344 -0.0000
vn -0.9569 -0.2903 0.0000
vn 0.6344 0.7730 -0.0000
vn -0.8819 -0.4714 0.0000
vn 0.4714 0.8819 -0.0000
vn 0.0980 -0.9952 0.0000
vn -0.7730 -0.6344 0.0000
vn 0.2903 0.9569 -0.0000
vn 0.2903 -0.9569 0.0000
vn -0.6344 -0.7730 0.0000
vn 0.0980 0.9952 -0.0000
vn 0.4714 -0.8819 0.0000
vn -0.0000 -0.0000 1.0000
vn 0.0000 0.0000 -1.0000
usemtl None
s off
f 158/261/35 159/262/35 191/263/35 190/264/35
f 145/265/36 146/266/36 178/267/36 177/268/36
f 132/269/37 133/270/37 165/271/37 164/272/37
f 159/262/38 160/273/38 192/274/38 191/263/38
f 146/266/39 147/275/39 179/276/39 178/267/39
f 133/270/40 134/277/40 166/278/40 165/271/40
f 160/273/41 129/279/41 161/280/41 192/274/41
f 147/275/42 148/281/42 180/282/42 179/276/42
f 134/277/43 135/283/43 167/284/43 166/278/43
f 148/281/44 149/285/44 181/286/44 180/282/44
f 135/283/45 136/287/45 168/288/45 167/284/45
f 149/285/46 150/289/46 182/290/46 181/286/46
f 136/287/47 137/291/47 169/292/47 168/288/47
f 150/289/48 151/293/48 183/294/48 182/290/48
f 137/291/49 138/295/49 170/296/49 169/292/49
f 151/293/50 152/297/50 184/298/50 183/294/50
f 138/295/51 139/299/51 171/300/51 170/296/51
f 152/297/52 153/301/52 185/302/52 184/298/52
f 139/299/53 140/303/53 172/304/53 171/300/53
f 153/301/54 154/305/54 186/306/54 185/302/54
f 140/303/55 141/307/55 173/308/55 172/304/55
f 154/305/56 155/309/56 187/310/56 186/306/56
f 141/307/57 142/311/57 174/312/57 173/308/57
f 155/309/58 156/313/58 188/314/58 187/310/58
f 142/311/59 143/315/59 175/316/59 174/312/59
f 129/279/60 130/317/60 162/318/60 161/280/60
f 156/313/61 157/319/61 189/320/61 188/314/61
f 143/315/62 144/321/62 176/322/62 175/316/62
f 130/317/63 131/323/63 163/324/63 162/318/63
f 157/319/64 158/261/64 190/264/64 189/320/64
f 144/321/65 145/265/65 177/268/65 176/322/65
f 131/323/66 132/269/66 164/272/66 163/324/66
f 162/318/67 163/324/67 164/272/67 165/271/67 166/278/67 167/284/67 168/288/67 169/292/67 170/296/67 171/300/67 172/304/67 173/308/67 174/312/67 175/316/67 176/322/67 177/268/67 178/267/67 179/276/67 180/282/67 181/286/67 182/290/67 183/294/67 184/298/67 185/302/67 186/306/67 187/310/67 188/314/67 189/320/67 190/264/67 191/263/67 192/274/67 161/280/67
f 130/317/68 129/279/68 160/273/68 159/262/68 158/261/68 157/319/68 156/313/68 155/309/68 154/305/68 153/301/68 152/297/68 151/293/68 150/289/68 149/285/68 148/281/68 147/275/68 146/266/68 145/265/68 144/321/68 143/315/68 142/311/68 141/307/68 140/303/68 139/299/68 138/295/68 137/291/68 136/287/68 135/283/68 134/277/68 133/270/68 132/269/68 131/323/68
